#N canvas 491 67 739 589 10;
#X obj 13 54 OSCroute /sfirst /sother /rfirst /rother /nfirst /nother
;
#N canvas 0 22 450 278 (subpatch) 0;
#X array sfirst 98541 float 2;
#X coords 0 1 98541 -1 200 140 1;
#X restore 389 27 graph;
#N canvas 104 212 450 300 init 0;
#X obj 97 36 inlet;
#X msg 97 71 read -resize data/senbei/senbei_1.wav sfirst;
#X obj 97 133 soundfiler;
#X msg 162 106 read -resize data/senbei/senbei_2.wav sother;
#X connect 0 0 1 0;
#X connect 1 0 2 0;
#X connect 3 0 2 0;
#X restore 407 390 pd init;
#N canvas 0 22 450 278 (subpatch) 0;
#X array sother 15559 float 2;
#X coords 0 1 15559 -1 200 140 1 0 0;
#X restore 389 187 graph;
#X obj 407 352 bng 15 250 50 0 empty empty empty 17 7 0 10 -262144
-1 -1;
#X obj 13 102 tabplay~ sfirst;
#X obj -9 165 dac~;
#N canvas 216 88 450 300 shindo 0;
#X obj 67 43 inlet;
#X obj 121 280 dac~;
#X msg 226 157 1;
#X msg 262 157 0;
#X obj 144 235 *~ 0;
#X obj 209 45 inlet;
#X obj 53 144 osc~ 30;
#X obj 307 89 hsl 128 15 0 5 0 0 empty empty empty -2 -8 0 10 -262144
-1 -1 2600 1;
#X connect 0 0 4 1;
#X connect 2 0 4 1;
#X connect 3 0 4 1;
#X connect 4 0 1 0;
#X connect 4 0 1 1;
#X connect 5 0 3 0;
#X connect 6 0 4 0;
#X restore 485 476 pd shindo;
#X obj 407 414 tgl 15 0 empty empty empty 17 7 0 10 -262144 -1 -1 1
1;
#X msg 407 439 \; pd dsp \$1;
#X obj 64 222 dac~;
#X obj 67 143 tabplay~ sother;
#X obj 13 19 dumpOSC 9800;
#X obj 485 365 abs~;
#X obj 485 403 snapshot~;
#X floatatom 485 450 0 0 0 0 - - -;
#X obj 518 365 metro 1;
#X obj 485 336 receive~ shindo1;
#X obj 48 245 send~ shindo1;
#X obj 129 214 send shindo2;
#X obj 536 435 receive shindo2;
#X obj 484 427 * 10;
#X obj 546 403 receive bairitsu;
#X obj -86 124 send bairitsu;
#X msg -49 88 10;
#X obj -69 250 send bairitsu;
#X msg -32 214 20;
#X connect 0 0 5 0;
#X connect 0 0 24 0;
#X connect 0 1 11 0;
#X connect 0 1 26 0;
#X connect 4 0 2 0;
#X connect 5 0 6 0;
#X connect 5 0 6 1;
#X connect 5 0 18 0;
#X connect 5 1 19 0;
#X connect 8 0 9 0;
#X connect 11 0 10 0;
#X connect 11 0 10 1;
#X connect 11 0 18 0;
#X connect 11 1 19 0;
#X connect 12 0 0 0;
#X connect 13 0 14 0;
#X connect 14 0 21 0;
#X connect 15 0 7 0;
#X connect 16 0 14 0;
#X connect 17 0 13 0;
#X connect 20 0 7 1;
#X connect 21 0 15 0;
#X connect 22 0 21 1;
#X connect 24 0 23 0;
#X connect 26 0 25 0;
