#N canvas 315 231 1042 601 10;
#N canvas 521 245 666 579 init 0;
#X obj 97 36 inlet;
#X msg 97 71 read -resize data/senbei/senbei_1.wav sfirst;
#X obj 42 474 soundfiler;
#X msg 162 106 read -resize data/senbei/senbei_2.wav sother;
#X msg 164 154 read -resize data/apple/apple_1.wav rother0;
#X msg 164 181 read -resize data/apple/apple_2.wav rother1;
#X msg 163 206 read -resize data/apple/apple_3.wav rother2;
#X msg 164 230 read -resize data/apple/apple_4.wav rother3;
#X msg 165 263 read -resize data/niku/niku_1.wav nother0;
#X msg 165 290 read -resize data/niku/niku_2.wav nother1;
#X msg 164 315 read -resize data/niku/niku_3.wav nother2;
#X msg 165 339 read -resize data/niku/niku_4.wav nother3;
#X msg 165 367 read -resize data/niku/niku_5.wav nother4;
#X msg 161 390 read -resize data/goku.wav goku;
#X msg 164 425 read -resize data/paku.wav paku;
#X connect 0 0 1 0;
#X connect 1 0 2 0;
#X connect 1 0 3 0;
#X connect 3 0 2 0;
#X connect 3 0 4 0;
#X connect 4 0 5 0;
#X connect 4 0 2 0;
#X connect 5 0 6 0;
#X connect 5 0 2 0;
#X connect 6 0 2 0;
#X connect 6 0 7 0;
#X connect 7 0 2 0;
#X connect 7 0 8 0;
#X connect 8 0 9 0;
#X connect 8 0 2 0;
#X connect 9 0 10 0;
#X connect 9 0 2 0;
#X connect 10 0 11 0;
#X connect 10 0 2 0;
#X connect 11 0 12 0;
#X connect 11 0 2 0;
#X connect 12 0 2 0;
#X connect 12 0 13 0;
#X connect 13 0 2 0;
#X connect 13 0 14 0;
#X connect 14 0 2 0;
#X restore 509 268 pd init;
#X obj 509 73 bng 15 250 50 0 empty empty empty 17 7 0 10 -262144 -1
-1;
#N canvas 216 282 633 457 shindo 1;
#X obj 67 43 inlet;
#X msg 226 157 1;
#X msg 262 157 0;
#X obj 145 208 *~ 0;
#X obj 209 45 inlet;
#X obj 307 89 hsl 128 15 0 5 0 0 empty empty empty -2 -8 0 10 -262144
-1 -1 0 1;
#X obj 178 248 *~;
#X obj 270 187 receive volume;
#X obj 53 144 osc~ 30;
#X obj 179 289 send~ out2;
#X connect 0 0 3 1;
#X connect 1 0 3 1;
#X connect 2 0 3 1;
#X connect 3 0 6 0;
#X connect 4 0 2 0;
#X connect 6 0 9 0;
#X connect 7 0 6 1;
#X connect 8 0 3 0;
#X restore 578 354 pd shindo;
#X obj 509 292 tgl 15 0 empty empty empty 17 7 0 10 -262144 -1 -1 1
1;
#X msg 509 317 \; pd dsp \$1;
#X obj 15 151 tabplay~ sother;
#X obj 13 19 dumpOSC 9800;
#X obj 578 243 abs~;
#X obj 578 281 snapshot~;
#X floatatom 578 328 0 0 0 0 - - -;
#X obj 611 243 metro 1;
#X obj 578 84 receive~ shindo1;
#X obj 59 276 send~ shindo1;
#X obj 156 274 send shindo2;
#X obj 629 313 receive shindo2;
#X obj 639 281 receive bairitsu;
#X obj -73 251 send bairitsu;
#N canvas 474 562 565 448 sounds_senbei 0;
#N canvas 0 22 450 278 (subpatch) 0;
#X array sfirst 98541 float 2;
#X coords 0 1 98541 -1 200 140 1;
#X restore 84 -8 graph;
#N canvas 0 22 450 278 (subpatch) 0;
#X array sother 15559 float 2;
#X coords 0 1 15559 -1 200 140 1 0 0;
#X restore 84 152 graph;
#X restore -22 395 pd sounds_senbei;
#N canvas 96 86 522 481 sounds_ringo 1;
#N canvas 0 22 450 278 (subpatch) 0;
#X array rother0 12413 float 2;
#X coords 0 1 12413 -1 200 140 1 0 0;
#X restore 54 -58 graph;
#N canvas 0 22 450 278 (subpatch) 0;
#X array rother1 13715 float 2;
#X coords 0 1 13715 -1 200 140 1 0 0;
#X restore 54 102 graph;
#N canvas 0 22 450 278 (subpatch) 0;
#X array rother2 9879 float 2;
#X coords 0 1 9879 -1 200 140 1 0 0;
#X restore 262 102 graph;
#N canvas 0 22 450 278 (subpatch) 0;
#X array rother3 7336 float 2;
#X coords 0 1 7336 -1 200 140 1 0 0;
#X restore 261 262 graph;
#X restore -21 421 pd sounds_ringo;
#N canvas 130 340 506 495 sounds_niku 1;
#N canvas 0 22 450 278 (subpatch) 0;
#X array nother0 85732 float 2;
#X coords 0 1 85732 -1 200 140 1 0 0;
#X restore 64 -48 graph;
#N canvas 0 22 450 278 (subpatch) 0;
#X array nother1 40475 float 2;
#X coords 0 1 40475 -1 200 140 1 0 0;
#X restore 64 112 graph;
#N canvas 0 22 450 278 (subpatch) 0;
#X array nother2 14604 float 2;
#X coords 0 1 14604 -1 200 140 1 0 0;
#X restore 272 112 graph;
#N canvas 0 22 450 278 (subpatch) 0;
#X array nother3 34321 float 2;
#X coords 0 1 34321 -1 200 140 1 0 0;
#X restore 271 272 graph;
#N canvas 0 22 450 278 (subpatch) 0;
#X array nother4 42874 float 2;
#X coords 0 1 42874 -1 200 140 1 0 0;
#X restore 65 272 graph;
#X restore -21 445 pd sounds_niku;
#X obj 833 332 dac~;
#N canvas 209 315 450 300 play_sounds_random_senbei 0;
#X obj 121 37 inlet;
#X restore -12 339 pd play_sounds_random_senbei;
#N canvas 52 197 560 485 play_sounds_random_ringo 1;
#X obj 121 37 inlet;
#X obj 98 111 random 4;
#X obj 83 187 sel 0;
#X obj 132 187 sel 1;
#X obj 179 187 sel 2;
#X obj 226 187 sel 3;
#X obj 23 240 tabplay~ rother0;
#X obj 111 214 tabplay~ rother1;
#X obj 169 246 tabplay~ rother2;
#X obj 243 217 tabplay~ rother3;
#X obj 148 363 outlet~;
#X obj 248 362 outlet;
#X obj 28 382 send bairitsu;
#X msg 28 350 10;
#X connect 0 0 1 0;
#X connect 1 0 2 0;
#X connect 1 0 3 0;
#X connect 1 0 4 0;
#X connect 1 0 5 0;
#X connect 2 0 6 0;
#X connect 2 0 13 0;
#X connect 3 0 7 0;
#X connect 3 0 13 0;
#X connect 4 0 8 0;
#X connect 4 0 13 0;
#X connect 5 0 9 0;
#X connect 5 0 13 0;
#X connect 6 0 10 0;
#X connect 6 1 11 0;
#X connect 7 0 10 0;
#X connect 7 1 11 0;
#X connect 8 0 10 0;
#X connect 8 1 11 0;
#X connect 9 0 10 0;
#X connect 9 1 11 0;
#X connect 13 0 12 0;
#X restore 84 189 pd play_sounds_random_ringo;
#X obj 578 305 * 2;
#X msg -73 223 20;
#N canvas 790 300 591 431 play_sounds_random_niku 0;
#X obj 83 37 inlet;
#X obj 83 83 random 5;
#X obj 42 141 sel 0;
#X obj 185 146 sel 2;
#X obj 112 139 sel 1;
#X obj 260 145 sel 3;
#X obj 337 141 sel 4;
#X obj 42 187 tabplay~ nother0;
#X obj 112 236 tabplay~ nother1;
#X obj 185 210 tabplay~ nother2;
#X obj 260 187 tabplay~ nother3;
#X obj 337 251 tabplay~ nother4;
#X obj 170 334 outlet~;
#X obj 279 352 outlet;
#X obj 15 299 send bairitsu;
#X msg 15 267 3;
#X connect 0 0 1 0;
#X connect 1 0 2 0;
#X connect 1 0 4 0;
#X connect 1 0 3 0;
#X connect 1 0 5 0;
#X connect 1 0 6 0;
#X connect 2 0 7 0;
#X connect 2 0 15 0;
#X connect 3 0 9 0;
#X connect 3 0 15 0;
#X connect 4 0 8 0;
#X connect 4 0 15 0;
#X connect 5 0 10 0;
#X connect 5 0 15 0;
#X connect 6 0 11 0;
#X connect 6 0 15 0;
#X connect 7 0 12 0;
#X connect 7 1 13 0;
#X connect 8 0 12 0;
#X connect 8 1 13 0;
#X connect 9 0 12 0;
#X connect 9 1 13 0;
#X connect 10 0 12 0;
#X connect 10 1 13 0;
#X connect 11 0 12 0;
#X connect 11 1 13 0;
#X connect 15 0 14 0;
#X restore 236 143 pd play_sounds_random_niku;
#X obj 631 155 *~;
#X obj -61 171 send volume;
#X obj 664 122 receive volume;
#X obj 32 119 send volume;
#X floatatom 229 93 5 0 0 0 - - -;
#X obj 229 115 send volume;
#X floatatom -59 148 5 0 0 0 - - -;
#X obj 102 83 bng 15 250 50 0 empty empty empty 17 7 0 10 -262144 -1
-1;
#X obj 143 79 bng 15 250 50 0 empty empty empty 17 7 0 10 -262144 -1
-1;
#X obj 311 200 tabplay~ goku;
#X obj 304 290 send bairitsu;
#X obj 743 34 bng 15 250 50 0 empty empty empty 17 7 0 10 -262144 -1
-1;
#X obj 831 122 random 3;
#X obj 792 167 sel 0;
#X obj 831 167 sel 1;
#X obj 870 167 sel 2;
#X obj 813 274 *~;
#X obj 844 274 *~;
#X msg 769 201 1;
#X msg 800 201 0;
#X msg 834 226 1;
#X msg 865 226 1;
#X msg 884 201 0;
#X msg 915 201 1;
#X floatatom 32 97 5 0 0 0 - - -;
#X obj 630 183 send~ out;
#X obj 685 222 receive~ out;
#X obj 741 331 receive~ out2;
#X obj 766 424 dac~;
#X obj 746 366 *~;
#X obj 777 366 *~;
#X obj 9 303 send~ barabaraout;
#X obj 611 103 receive~ barabaraout;
#X obj 327 538 dac~;
#X msg 303 269 1.5;
#N canvas 683 388 450 300 sounds_etc 1;
#N canvas 0 22 450 278 (subpatch) 0;
#X array goku 6822 float 2;
#X coords 0 1 6822 -1 200 140 1 0 0;
#X restore 100 20 graph;
#N canvas 0 22 450 278 (subpatch) 0;
#X array paku 15322 float 2;
#X coords 0 1 15322 -1 200 140 1 0 0;
#X restore 102 178 graph;
#X restore -21 473 pd sounds_etc;
#X obj 13 54 OSCroute /sother /rother /nother /gokuri /paku;
#X obj 483 451 tabplay~ paku;
#X obj 442 498 send bairitsu;
#X obj 439 308 bng 15 250 50 0 empty empty empty 17 7 0 10 -262144
-1 -1;
#X msg 442 476 1;
#X connect 1 0 0 0;
#X connect 1 0 10 0;
#X connect 3 0 4 0;
#X connect 5 0 12 0;
#X connect 5 0 57 0;
#X connect 5 1 13 0;
#X connect 6 0 37 0;
#X connect 6 0 62 0;
#X connect 7 0 8 0;
#X connect 8 0 23 0;
#X connect 9 0 2 0;
#X connect 10 0 8 0;
#X connect 11 0 7 0;
#X connect 14 0 2 1;
#X connect 15 0 23 1;
#X connect 22 0 12 0;
#X connect 22 0 57 0;
#X connect 22 1 13 0;
#X connect 23 0 9 0;
#X connect 24 0 16 0;
#X connect 25 0 12 0;
#X connect 25 0 57 0;
#X connect 25 1 13 0;
#X connect 26 0 51 0;
#X connect 28 0 26 1;
#X connect 30 0 31 0;
#X connect 32 0 27 0;
#X connect 33 0 22 0;
#X connect 33 0 50 0;
#X connect 34 0 30 0;
#X connect 34 0 25 0;
#X connect 35 0 12 0;
#X connect 35 0 59 0;
#X connect 35 0 59 1;
#X connect 35 1 13 0;
#X connect 37 0 38 0;
#X connect 38 0 39 0;
#X connect 38 0 40 0;
#X connect 38 0 41 0;
#X connect 39 0 44 0;
#X connect 39 0 45 0;
#X connect 40 0 46 0;
#X connect 40 0 47 0;
#X connect 41 0 48 0;
#X connect 41 0 49 0;
#X connect 42 0 20 0;
#X connect 43 0 20 1;
#X connect 44 0 42 1;
#X connect 44 0 55 1;
#X connect 45 0 43 1;
#X connect 45 0 56 1;
#X connect 46 0 42 1;
#X connect 46 0 55 1;
#X connect 47 0 43 1;
#X connect 47 0 56 1;
#X connect 48 0 42 1;
#X connect 48 0 55 1;
#X connect 49 0 43 1;
#X connect 49 0 56 1;
#X connect 50 0 29 0;
#X connect 52 0 42 0;
#X connect 52 0 43 0;
#X connect 53 0 55 0;
#X connect 53 0 56 0;
#X connect 55 0 54 0;
#X connect 56 0 54 1;
#X connect 58 0 26 0;
#X connect 60 0 36 0;
#X connect 62 0 24 0;
#X connect 62 0 5 0;
#X connect 62 0 32 0;
#X connect 62 1 33 0;
#X connect 62 2 34 0;
#X connect 62 3 35 0;
#X connect 62 3 60 0;
#X connect 62 4 63 0;
#X connect 62 4 66 0;
#X connect 63 0 12 0;
#X connect 63 0 59 0;
#X connect 63 0 59 1;
#X connect 63 1 13 0;
#X connect 65 0 63 0;
#X connect 65 0 66 0;
#X connect 66 0 64 0;
