#N canvas 44 58 1277 804 10;
#X obj -160 20 OSCroute /sother /nother /pother /gokuri /paku /pstart
/pfinish;
#N canvas 250 383 450 300 out 0;
#X obj 69 50 inlet~;
#X obj 150 50 inlet;
#X obj 114 112 *~;
#X obj 115 152 send~ sout;
#X connect 0 0 2 0;
#X connect 1 0 2 1;
#X connect 2 0 3 0;
#X restore -385 170 pd out;
#N canvas 48 110 564 458 play_senbei 1;
#X obj -152 31 inlet;
#X floatatom 65 135 5 0 0 0 - - -;
#X floatatom 122 135 5 0 0 0 - - -;
#X obj -152 151 outlet~;
#X obj -62 151 outlet;
#X obj 65 180 outlet;
#X obj 122 180 outlet;
#X obj 65 98 unpack i i;
#N canvas 42 226 722 482 play_sounds_count_senbei 1;
#X obj 364 -27 inlet;
#X obj 189 349 outlet~;
#X obj 279 352 outlet;
#X obj 484 359 send bairitsu;
#X obj 103 238 tabplay~ sother0;
#X obj 173 277 tabplay~ sother1;
#X msg 485 326 1;
#X obj 215 239 tabplay~ sother2;
#X obj 340 244 tabplay~ sother3;
#X obj 364 6 unpack i i i;
#X floatatom 433 36 5 0 0 0 - - -;
#X obj 398 82 sel 0;
#X obj 424 109 sel 1;
#X obj 462 138 sel 2;
#X obj 501 169 sel 3;
#X obj 539 195 sel 4;
#X obj 559 244 tabplay~ sother4;
#X connect 0 0 9 0;
#X connect 4 0 1 0;
#X connect 4 1 2 0;
#X connect 5 0 1 0;
#X connect 5 1 2 0;
#X connect 6 0 3 0;
#X connect 7 0 1 0;
#X connect 7 1 2 0;
#X connect 8 0 1 0;
#X connect 8 1 2 0;
#X connect 9 2 10 0;
#X connect 10 0 11 0;
#X connect 11 0 4 0;
#X connect 11 0 6 0;
#X connect 11 1 12 0;
#X connect 12 0 5 0;
#X connect 12 0 6 0;
#X connect 12 1 13 0;
#X connect 13 0 7 0;
#X connect 13 0 6 0;
#X connect 13 1 14 0;
#X connect 14 0 8 0;
#X connect 14 0 6 0;
#X connect 14 1 15 0;
#X connect 15 0 6 0;
#X connect 15 0 16 0;
#X connect 15 1 16 0;
#X connect 15 1 6 0;
#X connect 16 0 1 0;
#X connect 16 1 2 0;
#X restore -152 98 pd play_sounds_count_senbei;
#X connect 0 0 7 0;
#X connect 0 0 8 0;
#X connect 1 0 5 0;
#X connect 2 0 6 0;
#X connect 7 0 1 0;
#X connect 7 1 2 0;
#X connect 8 0 3 0;
#X connect 8 1 4 0;
#X restore -411 113 pd play_senbei;
#N canvas 179 86 450 300 play_niku 1;
#X obj -152 31 inlet;
#X obj 65 98 unpack f i;
#X floatatom 65 135 5 0 0 0 - - -;
#X floatatom 122 135 5 0 0 0 - - -;
#X obj -152 151 outlet~;
#X obj -62 151 outlet;
#X obj 65 180 outlet;
#X obj 122 180 outlet;
#N canvas 82 336 622 456 play_sounds_count_niku 1;
#X obj 42 187 tabplay~ nother0;
#X obj 112 236 tabplay~ nother1;
#X obj 185 210 tabplay~ nother2;
#X obj 306 219 tabplay~ nother3;
#X obj 337 251 tabplay~ nother4;
#X obj 170 334 outlet~;
#X obj 279 352 outlet;
#X obj 483 289 send bairitsu;
#X msg 483 257 1;
#X obj 374 -17 inlet;
#X obj 374 16 unpack i i i;
#X floatatom 443 46 5 0 0 0 - - -;
#X obj 386 75 sel 0;
#X obj 434 119 sel 1;
#X obj 473 143 sel 2;
#X obj 511 179 sel 3;
#X obj 549 205 sel 4;
#X msg 549 254 0.6;
#X msg 445 258 1.4;
#X connect 0 0 5 0;
#X connect 0 1 6 0;
#X connect 1 0 5 0;
#X connect 1 1 6 0;
#X connect 2 0 5 0;
#X connect 2 1 6 0;
#X connect 3 0 5 0;
#X connect 3 1 6 0;
#X connect 4 0 5 0;
#X connect 4 1 6 0;
#X connect 8 0 7 0;
#X connect 9 0 10 0;
#X connect 10 2 11 0;
#X connect 11 0 12 0;
#X connect 12 0 0 0;
#X connect 12 0 18 0;
#X connect 12 1 13 0;
#X connect 13 0 8 0;
#X connect 13 0 1 0;
#X connect 13 1 14 0;
#X connect 14 0 8 0;
#X connect 14 0 2 0;
#X connect 14 1 15 0;
#X connect 15 0 8 0;
#X connect 15 0 3 0;
#X connect 15 1 16 0;
#X connect 16 0 4 0;
#X connect 16 0 17 0;
#X connect 16 1 4 0;
#X connect 16 1 17 0;
#X connect 17 0 7 0;
#X connect 18 0 7 0;
#X restore -147 91 pd play_sounds_count_niku;
#X connect 0 0 1 0;
#X connect 0 0 8 0;
#X connect 1 0 2 0;
#X connect 1 1 3 0;
#X connect 2 0 6 0;
#X connect 3 0 7 0;
#X connect 8 0 4 0;
#X connect 8 1 5 0;
#X restore -256 112 pd play_niku;
#N canvas 119 303 450 300 play_pachipachi 1;
#X obj -152 31 inlet;
#X obj 65 98 unpack f i;
#X floatatom 65 135 5 0 0 0 - - -;
#X floatatom 122 135 5 0 0 0 - - -;
#X obj -152 151 outlet~;
#X obj -62 151 outlet;
#X obj 65 180 outlet;
#X obj 122 180 outlet;
#N canvas 790 300 591 431 play_sounds_random_pachipachi 1;
#X obj 171 401 outlet~;
#X obj 280 419 outlet;
#X obj 336 368 send bairitsu;
#X msg 336 336 1;
#X obj 43 254 tabplay~ pother0;
#X obj 113 303 tabplay~ pother1;
#X obj 186 277 tabplay~ pother2;
#X obj 283 59 unpack i i i;
#X floatatom 352 89 5 0 0 0 - - -;
#X obj 190 112 sel 0;
#X obj 229 132 sel 1;
#X obj 258 160 sel 2;
#X obj 296 196 sel 3;
#X obj 334 222 sel 4;
#X obj 283 20 inlet;
#X obj 226 324 tabplay~ pother3;
#X obj 342 275 tabplay~ pother4;
#X connect 3 0 2 0;
#X connect 4 0 0 0;
#X connect 4 1 1 0;
#X connect 5 0 0 0;
#X connect 5 1 1 0;
#X connect 6 0 0 0;
#X connect 6 1 1 0;
#X connect 7 2 8 0;
#X connect 8 0 9 0;
#X connect 9 0 4 0;
#X connect 9 0 3 0;
#X connect 9 1 10 0;
#X connect 10 0 5 0;
#X connect 10 0 3 0;
#X connect 10 1 11 0;
#X connect 11 0 6 0;
#X connect 11 0 3 0;
#X connect 11 1 12 0;
#X connect 12 0 15 0;
#X connect 12 0 3 0;
#X connect 12 1 13 0;
#X connect 13 0 16 0;
#X connect 13 0 3 0;
#X connect 13 1 16 0;
#X connect 13 1 3 0;
#X connect 14 0 7 0;
#X connect 15 0 0 0;
#X connect 15 1 1 0;
#X connect 16 0 0 0;
#X connect 16 1 1 0;
#X restore -147 91 pd play_sounds_random_pachipachi;
#X connect 0 0 1 0;
#X connect 0 0 8 0;
#X connect 1 0 2 0;
#X connect 1 1 3 0;
#X connect 2 0 6 0;
#X connect 3 0 7 0;
#X connect 8 0 4 0;
#X connect 8 1 5 0;
#X restore -141 116 pd play_pachipachi;
#N canvas 250 383 450 300 out 0;
#X obj 69 50 inlet~;
#X obj 150 50 inlet;
#X obj 114 112 *~;
#X obj 115 152 send~ nout;
#X connect 0 0 2 0;
#X connect 1 0 2 1;
#X connect 2 0 3 0;
#X restore -262 179 pd out;
#N canvas 250 383 450 300 out 0;
#X obj 69 50 inlet~;
#X obj 150 50 inlet;
#X obj 114 112 *~;
#X obj 115 152 send~ pout;
#X connect 0 0 2 0;
#X connect 1 0 2 1;
#X connect 2 0 3 0;
#X restore -134 178 pd out;
#X obj -335 171 send pos;
#X obj -215 176 send pos;
#X obj -61 181 send pos;
#X obj -287 324 receive pos;
#X obj -332 369 sel 1;
#X obj -274 368 sel 2;
#X obj -216 371 sel 3;
#X obj -339 586 dac~ 1 2 3 4;
#X msg -405 410 0;
#X msg -346 410 1;
#X msg -297 430 0;
#X msg -238 428 1;
#X obj -341 550 *~;
#X obj -313 551 *~;
#X obj -284 553 *~;
#X obj -249 551 *~;
#N canvas 460 136 770 609 init 0;
#X obj 106 -8 inlet;
#X obj 13 560 soundfiler;
#X msg 137 482 read -resize data/goku.wav goku;
#X msg 137 507 read -resize data/paku.wav paku;
#X msg 466 488 read -resize data/senbei/senbei_1.wav sother0;
#X msg 467 517 read -resize data/senbei/senbei_2.wav sother1;
#X msg 467 544 read -resize data/senbei/senbei_3.wav sother2;
#X msg 137 353 read -resize data/niku_ver2/niku_1_ver2.wav nother0
;
#X msg 137 380 read -resize data/niku_ver2/niku_2_ver2.wav nother1
;
#X msg 136 405 read -resize data/niku_ver2/niku_3_ver2.wav nother2
;
#X msg 137 429 read -resize data/niku_ver2/niku_4_ver2.wav nother3
;
#X msg 465 389 read -resize data/niku/niku_1.wav nother0;
#X msg 465 416 read -resize data/niku/niku_2.wav nother1;
#X msg 464 441 read -resize data/niku/niku_3.wav nother2;
#X msg 465 465 read -resize data/niku/niku_4.wav nother3;
#X msg 159 239 read -resize data/senbei_ver2/senbei_1_ver2.wav sother0
;
#X msg 136 275 read -resize data/senbei_ver2/senbei_2_ver2.wav sother1
;
#X msg 136 302 read -resize data/senbei_ver2/senbei_3_ver2.wav sother2
;
#X msg 137 326 read -resize data/senbei_ver2/senbei_4_ver2.wav sother3
;
#X msg 170 22 read -resize data/pachipachi/pachipachi_loop.wav ploop
;
#X msg 178 50 read -resize data/pachipachi/pachipachi_1.wav pother0
;
#X msg 184 85 read -resize data/pachipachi/pachipachi_2.wav pother1
;
#X msg 188 117 read -resize data/pachipachi/pachipachi_3.wav pother2
;
#X msg 197 210 read -resize data/senbei_ver2/senbei_5_ver2.wav sother4
;
#X msg 137 457 read -resize data/niku_ver2/niku_5_ver2.wav nother4
;
#X msg 218 145 read -resize data/pachipachi/pachipachi_4.wav pother3
;
#X msg 260 171 read -resize data/pachipachi/pachipachi_5.wav pother4
;
#X connect 0 0 19 0;
#X connect 2 0 1 0;
#X connect 2 0 3 0;
#X connect 3 0 1 0;
#X connect 4 0 5 0;
#X connect 5 0 6 0;
#X connect 7 0 8 0;
#X connect 7 0 1 0;
#X connect 8 0 9 0;
#X connect 8 0 1 0;
#X connect 9 0 10 0;
#X connect 9 0 1 0;
#X connect 10 0 24 0;
#X connect 10 0 1 0;
#X connect 11 0 12 0;
#X connect 12 0 13 0;
#X connect 13 0 14 0;
#X connect 15 0 16 0;
#X connect 15 0 1 0;
#X connect 16 0 17 0;
#X connect 16 0 1 0;
#X connect 17 0 1 0;
#X connect 17 0 18 0;
#X connect 18 0 7 0;
#X connect 18 0 1 0;
#X connect 19 0 20 0;
#X connect 19 0 1 0;
#X connect 20 0 21 0;
#X connect 20 0 1 0;
#X connect 21 0 22 0;
#X connect 21 0 1 0;
#X connect 22 0 1 0;
#X connect 22 0 23 0;
#X connect 22 0 25 0;
#X connect 23 0 15 0;
#X connect 23 0 1 0;
#X connect 24 0 1 0;
#X connect 24 0 2 0;
#X connect 25 0 26 0;
#X connect 25 0 1 0;
#X connect 26 0 23 0;
#X connect 26 0 1 0;
#X restore -78 558 pd init;
#X obj -77 480 bng 15 250 50 0 empty empty empty 17 7 0 10 -262144
-1 -1;
#X obj -71 590 tgl 15 0 empty empty empty 17 7 0 10 -262144 -1 -1 1
1;
#X msg -71 615 \; pd dsp \$1;
#N canvas 454 273 565 448 sounds_senbei 0;
#N canvas 0 22 450 278 (subpatch) 0;
#X array sother0 21754 float 2;
#X coords 0 1 21754 -1 200 140 1 0 0;
#X restore 47 26 graph;
#N canvas 0 22 450 278 (subpatch) 0;
#X array sother1 22162 float 2;
#X coords 0 1 22162 -1 200 140 1 0 0;
#X restore 49 185 graph;
#N canvas 0 22 450 278 (subpatch) 0;
#X array sother2 23866 float 2;
#X coords 0 1 23866 -1 200 140 1 0 0;
#X restore 255 27 graph;
#N canvas 0 22 450 278 (subpatch) 0;
#X array sother3 18753 float 2;
#X coords 0 1 18753 -1 200 140 1;
#X restore 257 185 graph;
#N canvas 0 22 450 278 (subpatch) 0;
#X array sother4 18752 float 2;
#X coords 0 1 18752 -1 200 140 1 0 0;
#X restore 259 343 graph;
#X restore 378 570 pd sounds_senbei;
#N canvas 893 300 506 495 sounds_niku 0;
#N canvas 0 22 450 278 (subpatch) 0;
#X array nother0 29372 float 2;
#X coords 0 1 29372 -1 200 140 1 0 0;
#X restore 64 -48 graph;
#N canvas 0 22 450 278 (subpatch) 0;
#X array nother1 25178 float 2;
#X coords 0 1 25178 -1 200 140 1 0 0;
#X restore 64 112 graph;
#N canvas 0 22 450 278 (subpatch) 0;
#X array nother2 19869 float 2;
#X coords 0 1 19869 -1 200 140 1 0 0;
#X restore 272 112 graph;
#N canvas 0 22 450 278 (subpatch) 0;
#X array nother3 21484 float 2;
#X coords 0 1 21484 -1 200 140 1 0 0;
#X restore 271 272 graph;
#N canvas 0 22 450 278 (subpatch) 0;
#X array nother4 19719 float 2;
#X coords 0 1 19719 -1 200 140 1 0 0;
#X restore 65 272 graph;
#X restore 378 592 pd sounds_niku;
#N canvas 683 388 450 300 sounds_etc 0;
#N canvas 0 22 450 278 (subpatch) 0;
#X array goku 6822 float 2;
#X coords 0 1 6822 -1 200 140 1 0 0;
#X restore 100 20 graph;
#N canvas 0 22 450 278 (subpatch) 0;
#X array paku 15322 float 2;
#X coords 0 1 15322 -1 200 140 1 0 0;
#X restore 102 178 graph;
#X restore 378 613 pd sounds_etc;
#N canvas 667 293 450 300 play_gokuri 0;
#X obj 45 16 inlet;
#X obj 45 118 tabplay~ goku;
#X obj 153 159 send bairitsu;
#X msg 153 119 1;
#X obj 45 172 outlet~;
#X obj 105 171 outlet;
#X obj 46 48 bng 15 250 50 0 empty empty empty 17 7 0 10 -262144 -1
-1;
#X connect 0 0 6 0;
#X connect 1 0 4 0;
#X connect 1 1 5 0;
#X connect 3 0 2 0;
#X connect 6 0 1 0;
#X connect 6 0 3 0;
#X restore 24 118 pd play_gokuri;
#X obj 24 162 send~ out_goku;
#N canvas 817 335 471 395 vibration 0;
#N canvas 636 239 633 457 shindo 0;
#X obj 67 43 inlet;
#X msg 226 157 1;
#X msg 262 157 0;
#X obj 209 45 inlet;
#X obj 178 248 *~;
#X obj 145 208 *~ 1;
#X obj 136 293 outlet~;
#X obj 270 187 inlet;
#X obj 53 144 osc~ 80;
#X connect 0 0 5 1;
#X connect 1 0 5 1;
#X connect 2 0 5 1;
#X connect 3 0 2 0;
#X connect 4 0 6 0;
#X connect 5 0 4 0;
#X connect 7 0 4 1;
#X connect 8 0 5 0;
#X restore 78 191 pd shindo;
#X obj 78 80 abs~;
#X obj 78 118 snapshot~;
#X floatatom 78 165 0 0 0 0 - - -;
#X obj 111 80 metro 1;
#X obj 139 118 receive bairitsu;
#X obj 78 142 * 2;
#X obj 78 261 outlet~;
#X obj 81 23 inlet~;
#X obj 147 152 inlet;
#X obj 124 52 inlet;
#X obj 181 188 inlet;
#X connect 0 0 7 0;
#X connect 1 0 2 0;
#X connect 2 0 6 0;
#X connect 3 0 0 0;
#X connect 4 0 2 0;
#X connect 5 0 6 1;
#X connect 6 0 3 0;
#X connect 8 0 1 0;
#X connect 9 0 0 1;
#X connect 10 0 4 0;
#X connect 11 0 0 2;
#X restore -462 227 pd vibration;
#X obj -384 201 receive init;
#X obj -213 208 receive init;
#X obj -49 204 receive init;
#X obj -78 530 receive init;
#X obj -77 503 send init;
#N canvas 761 340 471 395 vibration 0;
#N canvas 553 365 633 457 shindo 0;
#X obj 67 43 inlet;
#X msg 226 157 1;
#X msg 262 157 0;
#X obj 145 208 *~ 0;
#X obj 209 45 inlet;
#X obj 53 144 osc~ 80;
#X obj 178 248 *~;
#X obj 136 293 outlet~;
#X msg 269 231 10;
#X connect 0 0 3 1;
#X connect 1 0 3 1;
#X connect 2 0 3 1;
#X connect 3 0 6 0;
#X connect 4 0 2 0;
#X connect 5 0 3 0;
#X connect 6 0 7 0;
#X connect 8 0 6 1;
#X restore 78 191 pd shindo;
#X obj 78 80 abs~;
#X obj 78 118 snapshot~;
#X floatatom 78 165 0 0 0 0 - - -;
#X obj 111 80 metro 1;
#X obj 139 118 receive bairitsu;
#X obj 78 142 * 2;
#X obj 78 261 outlet~;
#X obj 81 23 inlet~;
#X obj 147 152 inlet;
#X obj 189 12 inlet;
#X connect 0 0 7 0;
#X connect 1 0 2 0;
#X connect 2 0 6 0;
#X connect 3 0 0 0;
#X connect 4 0 2 0;
#X connect 5 0 6 1;
#X connect 6 0 3 0;
#X connect 8 0 1 0;
#X connect 9 0 0 1;
#X connect 10 0 4 0;
#X restore 52 234 pd vibration;
#X obj 103 205 receive init;
#N canvas 200 425 450 300 play_paku 0;
#X obj 55 51 inlet;
#X obj 163 169 send bairitsu;
#X msg 163 129 1;
#X obj 55 182 outlet~;
#X obj 115 181 outlet;
#X obj 55 128 tabplay~ paku;
#X obj 55 80 bng 15 250 50 0 empty empty empty 17 7 0 10 -262144 -1
-1;
#X connect 0 0 6 0;
#X connect 2 0 1 0;
#X connect 5 0 3 0;
#X connect 5 1 4 0;
#X connect 6 0 5 0;
#X connect 6 0 2 0;
#X restore 171 122 pd play_paku;
#X obj 171 162 send~ out_paku;
#N canvas 803 456 471 395 vibration 0;
#N canvas 527 197 633 457 shindo 0;
#X obj 67 43 inlet;
#X msg 226 157 1;
#X msg 262 157 0;
#X obj 145 208 *~ 0;
#X obj 209 45 inlet;
#X obj 53 144 osc~ 80;
#X obj 178 248 *~;
#X obj 136 293 outlet~;
#X msg 302 184 1;
#X connect 0 0 3 1;
#X connect 1 0 3 1;
#X connect 2 0 3 1;
#X connect 3 0 6 0;
#X connect 4 0 2 0;
#X connect 5 0 3 0;
#X connect 6 0 7 0;
#X connect 8 0 6 1;
#X restore 78 191 pd shindo;
#X obj 78 80 abs~;
#X obj 78 118 snapshot~;
#X floatatom 78 165 0 0 0 0 - - -;
#X obj 111 80 metro 1;
#X obj 139 118 receive bairitsu;
#X obj 78 142 * 2;
#X obj 78 261 outlet~;
#X obj 81 23 inlet~;
#X obj 147 152 inlet;
#X obj 189 12 inlet;
#X connect 0 0 7 0;
#X connect 1 0 2 0;
#X connect 2 0 6 0;
#X connect 3 0 0 0;
#X connect 4 0 2 0;
#X connect 5 0 6 1;
#X connect 6 0 3 0;
#X connect 8 0 1 0;
#X connect 9 0 0 1;
#X connect 10 0 4 0;
#X restore 192 228 pd vibration;
#X obj 247 199 receive init;
#X obj 123 329 metro 500;
#X obj 123 383 sel 0 1 2 3;
#X msg 88 477 0;
#X msg 102 517 0;
#X msg 302 536 0;
#X obj 58 637 *~;
#X obj 86 638 *~;
#X obj 115 640 *~;
#X obj 150 638 *~;
#X msg -2 477 1;
#X msg 27 477 0;
#X msg 57 477 0;
#X msg 161 515 0;
#X msg 192 517 0;
#X msg 130 516 1;
#X msg 211 536 0;
#X msg 243 535 0;
#X msg 272 535 1;
#X msg 227 455 0;
#X msg 259 454 0;
#X msg 288 454 0;
#X msg 318 455 1;
#X obj 12 558 receive~ out_pachi;
#N canvas 768 265 798 683 sounds_pachi 1;
#N canvas 0 22 450 278 (subpatch) 0;
#X array pother0 25600 float 2;
#X coords 0 1 25600 -1 200 140 1 0 0;
#X restore 57 36 graph;
#N canvas 0 22 450 278 (subpatch) 0;
#X array pother1 19516 float 2;
#X coords 0 1 19516 -1 200 140 1 0 0;
#X restore 59 195 graph;
#N canvas 0 22 450 278 (subpatch) 0;
#X array pother2 22472 float 2;
#X coords 0 1 22472 -1 200 140 1 0 0;
#X restore 265 37 graph;
#N canvas 0 22 450 278 (subpatch) 0;
#X array ploop 714657 float 2;
#X coords 0 1 714657 -1 200 140 1 0 0;
#X restore 267 195 graph;
#N canvas 0 22 450 278 (subpatch) 0;
#X array pother3 13602 float 2;
#X coords 0 1 13602 -1 200 140 1 0 0;
#X restore 60 364 graph;
#N canvas 0 22 450 278 (subpatch) 0;
#X array pother4 10645 float 2;
#X coords 0 1 10645 -1 200 140 1 0 0;
#X restore 268 363 graph;
#X restore 378 550 pd sounds_pachi;
#X obj 123 305 receive init;
#N canvas 323 316 450 300 play_pachipachi_loop 0;
#X obj 90 88 inlet;
#X obj 234 91 inlet;
#X obj 90 135 bng 15 250 50 0 empty empty empty 17 7 0 10 -262144 -1
-1;
#X obj 90 231 outlet~;
#X obj 90 176 tabplay~ ploop;
#X msg 196 135 stop;
#X obj 219 234 outlet;
#X connect 0 0 2 0;
#X connect 1 0 5 0;
#X connect 2 0 4 0;
#X connect 4 0 3 0;
#X connect 4 1 2 0;
#X connect 5 0 4 0;
#X connect 5 0 6 0;
#X restore 335 125 pd play_pachipachi_loop;
#N canvas 374 248 471 395 vibration 1;
#N canvas 527 197 633 457 shindo 1;
#X obj 67 43 inlet;
#X msg 226 157 1;
#X msg 262 157 0;
#X obj 145 208 *~ 0;
#X obj 209 45 inlet;
#X obj 53 144 osc~ 80;
#X obj 178 248 *~;
#X obj 136 293 outlet~;
#X msg 326 174 2;
#X connect 0 0 3 1;
#X connect 1 0 3 1;
#X connect 2 0 3 1;
#X connect 3 0 6 0;
#X connect 4 0 2 0;
#X connect 5 0 3 0;
#X connect 6 0 7 0;
#X connect 8 0 6 1;
#X restore 78 191 pd shindo;
#X obj 78 80 abs~;
#X obj 78 118 snapshot~;
#X floatatom 78 165 0 0 0 0 - - -;
#X obj 111 80 metro 1;
#X obj 139 118 receive bairitsu;
#X obj 78 142 * 2;
#X obj 78 261 outlet~;
#X obj 78 43 inlet~;
#X obj 147 152 inlet;
#X obj 189 12 inlet;
#X connect 0 0 7 0;
#X connect 1 0 2 0;
#X connect 2 0 6 0;
#X connect 3 0 0 0;
#X connect 4 0 2 0;
#X connect 5 0 6 1;
#X connect 6 0 3 0;
#X connect 8 0 1 0;
#X connect 9 0 0 1;
#X connect 10 0 4 0;
#X restore 353 213 pd vibration;
#X obj 437 185 receive init;
#X obj 69 675 dac~ 1 2 3 4;
#X obj 340 253 send~ out_pachi;
#X obj 393 350 receive~ out_goku;
#X obj 366 382 dac~ 1 2 3 4;
#X obj 434 476 dac~ 1 2 3 4;
#X obj 470 440 receive~ out_paku;
#X obj -522 371 receive~ sout;
#X obj -531 418 receive~ nout;
#X obj -452 349 receive~ pout;
#X obj -524 457 receive~ svib;
#X obj -506 328 receive~ nvib;
#X obj -519 490 receive~ pvib;
#X obj -470 276 send~ svib;
#X obj -291 269 send~ nvib;
#X obj -105 270 send~ pvib;
#X obj 394 319 receive~ out_goku_vib;
#X obj 51 270 send~ out_goku_vib;
#X obj 192 256 send~ out_paku_vib;
#X obj 471 408 receive~ out_paku_vib;
#X obj -296 41 bng 15 250 50 0 empty empty empty 17 7 0 10 -262144
-1 -1;
#X floatatom -209 715 5 0 0 0 - - -;
#X obj -210 668 metro 1;
#X obj -215 693 snapshot~;
#X obj -206 638 bng 15 250 50 0 empty empty empty 17 7 0 10 -262144
-1 -1;
#X msg -156 448 0;
#X msg -127 448 0;
#X msg -97 449 1;
#X msg -376 410 0;
#X msg -315 410 1;
#X msg -269 429 1;
#X msg -207 430 0;
#X msg -188 449 1;
#N canvas 817 335 471 395 vibration 0;
#N canvas 636 239 633 457 shindo 0;
#X obj 67 43 inlet;
#X msg 226 157 1;
#X msg 262 157 0;
#X obj 209 45 inlet;
#X obj 178 248 *~;
#X obj 145 208 *~ 1;
#X obj 136 293 outlet~;
#X obj 270 187 inlet;
#X obj 53 144 osc~ 80;
#X connect 0 0 5 1;
#X connect 1 0 5 1;
#X connect 2 0 5 1;
#X connect 3 0 2 0;
#X connect 4 0 6 0;
#X connect 5 0 4 0;
#X connect 7 0 4 1;
#X connect 8 0 5 0;
#X restore 78 191 pd shindo;
#X obj 78 80 abs~;
#X obj 78 118 snapshot~;
#X floatatom 78 165 0 0 0 0 - - -;
#X obj 111 80 metro 1;
#X obj 139 118 receive bairitsu;
#X obj 78 142 * 2;
#X obj 78 261 outlet~;
#X obj 81 23 inlet~;
#X obj 147 152 inlet;
#X obj 124 52 inlet;
#X obj 181 188 inlet;
#X connect 0 0 7 0;
#X connect 1 0 2 0;
#X connect 2 0 6 0;
#X connect 3 0 0 0;
#X connect 4 0 2 0;
#X connect 5 0 6 1;
#X connect 6 0 3 0;
#X connect 8 0 1 0;
#X connect 9 0 0 1;
#X connect 10 0 4 0;
#X connect 11 0 0 2;
#X restore -288 234 pd vibration;
#N canvas 817 335 471 395 vibration 1;
#N canvas 636 239 633 457 shindo 0;
#X obj 67 43 inlet;
#X msg 226 157 1;
#X msg 262 157 0;
#X obj 209 45 inlet;
#X obj 178 248 *~;
#X obj 145 208 *~ 1;
#X obj 136 293 outlet~;
#X obj 270 187 inlet;
#X obj 53 144 osc~ 80;
#X connect 0 0 5 1;
#X connect 1 0 5 1;
#X connect 2 0 5 1;
#X connect 3 0 2 0;
#X connect 4 0 6 0;
#X connect 5 0 4 0;
#X connect 7 0 4 1;
#X connect 8 0 5 0;
#X restore 78 191 pd shindo;
#X obj 78 80 abs~;
#X obj 78 118 snapshot~;
#X floatatom 78 165 0 0 0 0 - - -;
#X obj 111 80 metro 1;
#X obj 139 118 receive bairitsu;
#X obj 78 142 * 2;
#X obj 78 261 outlet~;
#X obj 81 23 inlet~;
#X obj 147 152 inlet;
#X obj 124 52 inlet;
#X obj 181 188 inlet;
#X connect 0 0 7 0;
#X connect 1 0 2 0;
#X connect 2 0 6 0;
#X connect 3 0 0 0;
#X connect 4 0 2 0;
#X connect 5 0 6 1;
#X connect 6 0 3 0;
#X connect 8 0 1 0;
#X connect 9 0 0 1;
#X connect 10 0 4 0;
#X connect 11 0 0 2;
#X restore -118 237 pd vibration;
#X obj -160 -4 dumpOSC 9200;
#X obj 39 87 bng 15 250 50 0 empty empty empty 17 7 0 10 -262144 -1
-1;
#X obj 359 20 bng 15 250 50 0 empty empty empty 17 7 0 10 -262144 -1
-1;
#X obj 123 355 random 4;
#X obj 395 44 bng 15 250 50 0 empty empty empty 17 7 0 10 -262144 -1
-1;
#X connect 0 0 2 0;
#X connect 0 1 3 0;
#X connect 0 2 4 0;
#X connect 0 3 30 0;
#X connect 0 4 40 0;
#X connect 0 5 69 0;
#X connect 0 6 69 1;
#X connect 2 0 32 0;
#X connect 2 0 1 0;
#X connect 2 1 32 1;
#X connect 2 2 1 1;
#X connect 2 2 32 3;
#X connect 2 3 7 0;
#X connect 3 0 5 0;
#X connect 3 0 104 0;
#X connect 3 1 104 1;
#X connect 3 2 5 1;
#X connect 3 2 104 3;
#X connect 3 3 8 0;
#X connect 4 0 6 0;
#X connect 4 0 105 0;
#X connect 4 1 105 1;
#X connect 4 2 6 1;
#X connect 4 3 9 0;
#X connect 4 3 105 3;
#X connect 10 0 11 0;
#X connect 10 0 12 0;
#X connect 10 0 13 0;
#X connect 11 0 15 0;
#X connect 11 0 99 0;
#X connect 11 0 16 0;
#X connect 11 0 100 0;
#X connect 12 0 17 0;
#X connect 12 0 101 0;
#X connect 12 0 18 0;
#X connect 12 0 102 0;
#X connect 13 0 103 0;
#X connect 13 0 96 0;
#X connect 13 0 97 0;
#X connect 13 0 98 0;
#X connect 15 0 19 1;
#X connect 16 0 21 1;
#X connect 17 0 19 1;
#X connect 18 0 21 1;
#X connect 19 0 14 0;
#X connect 20 0 14 1;
#X connect 21 0 14 2;
#X connect 22 0 14 3;
#X connect 24 0 37 0;
#X connect 25 0 26 0;
#X connect 30 0 31 0;
#X connect 30 0 38 0;
#X connect 30 1 38 1;
#X connect 32 0 84 0;
#X connect 33 0 32 2;
#X connect 34 0 104 2;
#X connect 35 0 105 2;
#X connect 36 0 23 0;
#X connect 38 0 88 0;
#X connect 39 0 38 2;
#X connect 40 0 41 0;
#X connect 40 0 42 0;
#X connect 40 1 42 1;
#X connect 42 0 89 0;
#X connect 43 0 42 2;
#X connect 44 0 109 0;
#X connect 45 0 53 0;
#X connect 45 0 54 0;
#X connect 45 0 55 0;
#X connect 45 0 46 0;
#X connect 45 1 47 0;
#X connect 45 1 58 0;
#X connect 45 1 56 0;
#X connect 45 1 57 0;
#X connect 45 2 59 0;
#X connect 45 2 60 0;
#X connect 45 2 61 0;
#X connect 45 2 48 0;
#X connect 45 3 62 0;
#X connect 45 3 63 0;
#X connect 45 3 64 0;
#X connect 45 3 65 0;
#X connect 46 0 52 1;
#X connect 47 0 49 1;
#X connect 48 0 52 1;
#X connect 49 0 72 0;
#X connect 50 0 72 1;
#X connect 51 0 72 2;
#X connect 52 0 72 3;
#X connect 53 0 49 1;
#X connect 54 0 50 1;
#X connect 55 0 51 1;
#X connect 56 0 51 1;
#X connect 57 0 52 1;
#X connect 58 0 50 1;
#X connect 59 0 49 1;
#X connect 60 0 50 1;
#X connect 61 0 51 1;
#X connect 62 0 49 1;
#X connect 63 0 50 1;
#X connect 64 0 51 1;
#X connect 65 0 52 1;
#X connect 66 0 49 0;
#X connect 66 0 50 0;
#X connect 66 0 51 0;
#X connect 66 0 52 0;
#X connect 68 0 44 0;
#X connect 69 0 70 0;
#X connect 69 0 73 0;
#X connect 69 1 70 1;
#X connect 70 0 73 0;
#X connect 71 0 70 2;
#X connect 74 0 75 0;
#X connect 74 0 75 1;
#X connect 74 0 75 2;
#X connect 74 0 75 3;
#X connect 77 0 76 1;
#X connect 77 0 76 2;
#X connect 77 0 76 0;
#X connect 77 0 76 3;
#X connect 78 0 19 0;
#X connect 78 0 20 0;
#X connect 78 0 21 0;
#X connect 78 0 22 0;
#X connect 79 0 22 0;
#X connect 79 0 21 0;
#X connect 79 0 20 0;
#X connect 79 0 19 0;
#X connect 80 0 22 0;
#X connect 80 0 21 0;
#X connect 80 0 20 0;
#X connect 80 0 19 0;
#X connect 81 0 22 0;
#X connect 81 0 21 0;
#X connect 81 0 20 0;
#X connect 81 0 19 0;
#X connect 82 0 22 0;
#X connect 82 0 21 0;
#X connect 82 0 20 0;
#X connect 82 0 19 0;
#X connect 83 0 22 0;
#X connect 83 0 21 0;
#X connect 83 0 20 0;
#X connect 83 0 19 0;
#X connect 87 0 75 0;
#X connect 87 0 75 1;
#X connect 87 0 75 3;
#X connect 87 0 75 2;
#X connect 90 0 76 1;
#X connect 90 0 76 2;
#X connect 90 0 76 0;
#X connect 90 0 76 3;
#X connect 91 0 3 0;
#X connect 93 0 94 0;
#X connect 94 0 92 0;
#X connect 95 0 93 0;
#X connect 96 0 20 1;
#X connect 97 0 21 1;
#X connect 98 0 22 1;
#X connect 99 0 20 1;
#X connect 100 0 22 1;
#X connect 101 0 20 1;
#X connect 102 0 22 1;
#X connect 103 0 19 1;
#X connect 104 0 85 0;
#X connect 105 0 86 0;
#X connect 106 0 0 0;
#X connect 107 0 30 0;
#X connect 108 0 69 0;
#X connect 109 0 45 0;
#X connect 110 0 69 1;
