#N canvas 12 35 1150 717 10;
#X obj -160 -4 dumpOSC 9800;
#X obj -160 20 OSCroute /sother /nother /pother /gokuri /paku /pstart
/pfinish;
#N canvas 250 383 450 300 out 0;
#X obj 69 50 inlet~;
#X obj 150 50 inlet;
#X obj 114 112 *~;
#X obj 115 152 send~ out;
#X connect 0 0 2 0;
#X connect 1 0 2 1;
#X connect 2 0 3 0;
#X restore -385 170 pd out;
#N canvas 164 131 337 263 play_senbei 0;
#X obj -152 31 inlet;
#N canvas 88 299 591 431 play_sounds_random_senbei 0;
#X obj 83 37 inlet;
#X obj 86 130 sel 0;
#X obj 250 130 sel 2;
#X obj 166 131 sel 1;
#X obj 170 334 outlet~;
#X obj 279 352 outlet;
#X obj 15 299 send bairitsu;
#X obj 101 186 tabplay~ sother0;
#X obj 169 237 tabplay~ sother1;
#X msg 16 266 1;
#X obj 351 137 sel 3;
#X obj 213 187 tabplay~ sother2;
#X obj 338 192 tabplay~ sother3;
#X obj 83 83 random 4;
#X connect 0 0 13 0;
#X connect 1 0 9 0;
#X connect 1 0 7 0;
#X connect 2 0 9 0;
#X connect 2 0 11 0;
#X connect 3 0 9 0;
#X connect 3 0 8 0;
#X connect 7 0 4 0;
#X connect 7 1 5 0;
#X connect 8 0 4 0;
#X connect 8 1 5 0;
#X connect 9 0 6 0;
#X connect 10 0 12 0;
#X connect 10 0 9 0;
#X connect 11 0 4 0;
#X connect 11 1 5 0;
#X connect 12 0 4 0;
#X connect 12 1 5 0;
#X connect 13 0 1 0;
#X connect 13 0 3 0;
#X connect 13 0 2 0;
#X connect 13 0 10 0;
#X restore -152 98 pd play_sounds_random_senbei;
#X obj 65 98 unpack f i;
#X floatatom 65 135 5 0 0 0 - - -;
#X floatatom 122 135 5 0 0 0 - - -;
#X obj -152 151 outlet~;
#X obj -62 151 outlet;
#X obj 65 180 outlet;
#X obj 122 180 outlet;
#X connect 0 0 1 0;
#X connect 0 0 2 0;
#X connect 1 0 5 0;
#X connect 1 1 6 0;
#X connect 2 0 3 0;
#X connect 2 1 4 0;
#X connect 3 0 7 0;
#X connect 4 0 8 0;
#X restore -411 113 pd play_senbei;
#N canvas 119 303 450 300 play_niku 1;
#X obj -152 31 inlet;
#X obj 65 98 unpack f i;
#X floatatom 65 135 5 0 0 0 - - -;
#X floatatom 122 135 5 0 0 0 - - -;
#X obj -152 151 outlet~;
#X obj -62 151 outlet;
#X obj 65 180 outlet;
#X obj 122 180 outlet;
#N canvas 790 300 591 431 play_sounds_random_niku 0;
#X obj 83 37 inlet;
#X obj 83 83 random 5;
#X obj 42 141 sel 0;
#X obj 185 146 sel 2;
#X obj 112 139 sel 1;
#X obj 260 145 sel 3;
#X obj 337 141 sel 4;
#X obj 42 187 tabplay~ nother0;
#X obj 112 236 tabplay~ nother1;
#X obj 185 210 tabplay~ nother2;
#X obj 260 187 tabplay~ nother3;
#X obj 337 251 tabplay~ nother4;
#X obj 170 334 outlet~;
#X obj 279 352 outlet;
#X obj 15 299 send bairitsu;
#X msg 15 267 1;
#X connect 0 0 1 0;
#X connect 1 0 2 0;
#X connect 1 0 4 0;
#X connect 1 0 3 0;
#X connect 1 0 5 0;
#X connect 1 0 6 0;
#X connect 2 0 7 0;
#X connect 2 0 15 0;
#X connect 3 0 9 0;
#X connect 3 0 15 0;
#X connect 4 0 8 0;
#X connect 4 0 15 0;
#X connect 5 0 10 0;
#X connect 5 0 15 0;
#X connect 6 0 11 0;
#X connect 6 0 15 0;
#X connect 7 0 12 0;
#X connect 7 1 13 0;
#X connect 8 0 12 0;
#X connect 8 1 13 0;
#X connect 9 0 12 0;
#X connect 9 1 13 0;
#X connect 10 0 12 0;
#X connect 10 1 13 0;
#X connect 11 0 12 0;
#X connect 11 1 13 0;
#X connect 15 0 14 0;
#X restore -147 91 pd play_sounds_random_niku;
#X connect 0 0 1 0;
#X connect 0 0 8 0;
#X connect 1 0 2 0;
#X connect 1 1 3 0;
#X connect 2 0 6 0;
#X connect 3 0 7 0;
#X connect 8 0 4 0;
#X connect 8 1 5 0;
#X restore -256 112 pd play_niku;
#N canvas 119 303 450 300 play_pachipachi 0;
#X obj -152 31 inlet;
#X obj 65 98 unpack f i;
#X floatatom 65 135 5 0 0 0 - - -;
#X floatatom 122 135 5 0 0 0 - - -;
#X obj -152 151 outlet~;
#X obj -62 151 outlet;
#X obj 65 180 outlet;
#X obj 122 180 outlet;
#N canvas 790 300 591 431 play_sounds_random_pachipachi 0;
#X obj 83 37 inlet;
#X obj 83 83 random 5;
#X obj 42 141 sel 0;
#X obj 185 146 sel 2;
#X obj 112 139 sel 1;
#X obj 260 145 sel 3;
#X obj 337 141 sel 4;
#X obj 42 187 tabplay~ nother0;
#X obj 112 236 tabplay~ nother1;
#X obj 185 210 tabplay~ nother2;
#X obj 260 187 tabplay~ nother3;
#X obj 337 251 tabplay~ nother4;
#X obj 170 334 outlet~;
#X obj 279 352 outlet;
#X obj 15 299 send bairitsu;
#X msg 15 267 1;
#X connect 0 0 1 0;
#X connect 1 0 2 0;
#X connect 1 0 4 0;
#X connect 1 0 3 0;
#X connect 1 0 5 0;
#X connect 1 0 6 0;
#X connect 2 0 7 0;
#X connect 2 0 15 0;
#X connect 3 0 9 0;
#X connect 3 0 15 0;
#X connect 4 0 8 0;
#X connect 4 0 15 0;
#X connect 5 0 10 0;
#X connect 5 0 15 0;
#X connect 6 0 11 0;
#X connect 6 0 15 0;
#X connect 7 0 12 0;
#X connect 7 1 13 0;
#X connect 8 0 12 0;
#X connect 8 1 13 0;
#X connect 9 0 12 0;
#X connect 9 1 13 0;
#X connect 10 0 12 0;
#X connect 10 1 13 0;
#X connect 11 0 12 0;
#X connect 11 1 13 0;
#X connect 15 0 14 0;
#X restore -147 91 pd play_sounds_random_pachipachi;
#X connect 0 0 1 0;
#X connect 0 0 8 0;
#X connect 1 0 2 0;
#X connect 1 1 3 0;
#X connect 2 0 6 0;
#X connect 3 0 7 0;
#X connect 8 0 4 0;
#X connect 8 1 5 0;
#X restore -141 116 pd play_pachipachi;
#N canvas 250 383 450 300 out 0;
#X obj 69 50 inlet~;
#X obj 150 50 inlet;
#X obj 114 112 *~;
#X obj 115 152 send~ out;
#X connect 0 0 2 0;
#X connect 1 0 2 1;
#X connect 2 0 3 0;
#X restore -262 179 pd out;
#N canvas 250 383 450 300 out 0;
#X obj 69 50 inlet~;
#X obj 150 50 inlet;
#X obj 114 112 *~;
#X obj 115 152 send~ out;
#X connect 0 0 2 0;
#X connect 1 0 2 1;
#X connect 2 0 3 0;
#X restore -134 178 pd out;
#X obj -335 171 send pos;
#X obj -215 176 send pos;
#X obj -61 181 send pos;
#X obj -287 324 receive pos;
#X obj -332 369 sel 1;
#X obj -274 368 sel 2;
#X obj -216 371 sel 3;
#X obj -339 586 dac~ 1 2 3 4;
#X msg -405 410 0;
#X msg -315 410 0;
#X msg -376 410 1;
#X msg -346 410 1;
#X msg -297 430 0;
#X msg -238 428 1;
#X msg -207 430 1;
#X msg -269 429 0;
#X msg -97 449 0;
#X msg -156 448 1;
#X msg -188 449 1;
#X msg -127 448 0;
#X obj -341 550 *~;
#X obj -313 551 *~;
#X obj -284 553 *~;
#X obj -249 551 *~;
#X obj -455 466 receive~ out;
#N canvas 511 191 770 609 init 0;
#X obj 97 36 inlet;
#X obj 13 560 soundfiler;
#X msg 137 457 read -resize data/niku/niku_5.wav nother4;
#X msg 137 482 read -resize data/goku.wav goku;
#X msg 137 507 read -resize data/paku.wav paku;
#X msg 466 488 read -resize data/senbei/senbei_1.wav sother0;
#X msg 467 517 read -resize data/senbei/senbei_2.wav sother1;
#X msg 467 544 read -resize data/senbei/senbei_3.wav sother2;
#X msg 137 353 read -resize data/niku_ver2/niku_1_ver2.wav nother0
;
#X msg 137 380 read -resize data/niku_ver2/niku_2_ver2.wav nother1
;
#X msg 136 405 read -resize data/niku_ver2/niku_3_ver2.wav nother2
;
#X msg 137 429 read -resize data/niku_ver2/niku_4_ver2.wav nother3
;
#X msg 465 389 read -resize data/niku/niku_1.wav nother0;
#X msg 465 416 read -resize data/niku/niku_2.wav nother1;
#X msg 464 441 read -resize data/niku/niku_3.wav nother2;
#X msg 465 465 read -resize data/niku/niku_4.wav nother3;
#X msg 135 249 read -resize data/senbei_ver2/senbei_1_ver2.wav sother0
;
#X msg 136 275 read -resize data/senbei_ver2/senbei_2_ver2.wav sother1
;
#X msg 136 302 read -resize data/senbei_ver2/senbei_3_ver2.wav sother2
;
#X msg 137 326 read -resize data/senbei_ver2/senbei_4_ver2.wav sother3
;
#X msg 117 112 read -resize data/pachipachi/pachipachi_loop.wav ploop
;
#X msg 125 140 read -resize data/pachipachi/pachipachi_1.wav pother0
;
#X msg 131 175 read -resize data/pachipachi/pachipachi_2.wav pother1
;
#X msg 135 207 read -resize data/pachipachi/pachipachi_3.wav pother2
;
#X connect 0 0 20 0;
#X connect 2 0 1 0;
#X connect 2 0 3 0;
#X connect 3 0 1 0;
#X connect 3 0 4 0;
#X connect 4 0 1 0;
#X connect 5 0 6 0;
#X connect 6 0 7 0;
#X connect 8 0 9 0;
#X connect 8 0 1 0;
#X connect 9 0 10 0;
#X connect 9 0 1 0;
#X connect 10 0 11 0;
#X connect 10 0 1 0;
#X connect 11 0 2 0;
#X connect 11 0 1 0;
#X connect 12 0 13 0;
#X connect 13 0 14 0;
#X connect 14 0 15 0;
#X connect 16 0 17 0;
#X connect 16 0 1 0;
#X connect 17 0 18 0;
#X connect 17 0 1 0;
#X connect 18 0 1 0;
#X connect 18 0 19 0;
#X connect 19 0 8 0;
#X connect 19 0 1 0;
#X connect 20 0 21 0;
#X connect 20 0 1 0;
#X connect 21 0 22 0;
#X connect 21 0 1 0;
#X connect 22 0 23 0;
#X connect 22 0 1 0;
#X connect 23 0 16 0;
#X connect 23 0 1 0;
#X restore -78 558 pd init;
#X obj -77 480 bng 15 250 50 0 empty empty empty 17 7 0 10 -262144
-1 -1;
#X obj -71 590 tgl 15 0 empty empty empty 17 7 0 10 -262144 -1 -1 1
1;
#X msg -71 615 \; pd dsp \$1;
#N canvas 843 270 565 448 sounds_senbei 0;
#N canvas 0 22 450 278 (subpatch) 0;
#X array sother0 14450 float 2;
#X coords 0 1 14450 -1 200 140 1 0 0;
#X restore 47 26 graph;
#N canvas 0 22 450 278 (subpatch) 0;
#X array sother1 24669 float 2;
#X coords 0 1 24669 -1 200 140 1 0 0;
#X restore 49 185 graph;
#N canvas 0 22 450 278 (subpatch) 0;
#X array sother2 13963 float 2;
#X coords 0 1 13963 -1 200 140 1 0 0;
#X restore 255 27 graph;
#N canvas 0 22 450 278 (subpatch) 0;
#X array sother3 21333 float 2;
#X coords 0 1 21333 -1 200 140 1;
#X restore 257 185 graph;
#X restore -209 589 pd sounds_senbei;
#N canvas 893 300 506 495 sounds_niku 0;
#N canvas 0 22 450 278 (subpatch) 0;
#X array nother0 29372 float 2;
#X coords 0 1 29372 -1 200 140 1 0 0;
#X restore 64 -48 graph;
#N canvas 0 22 450 278 (subpatch) 0;
#X array nother1 43181 float 2;
#X coords 0 1 43181 -1 200 140 1 0 0;
#X restore 64 112 graph;
#N canvas 0 22 450 278 (subpatch) 0;
#X array nother2 36874 float 2;
#X coords 0 1 36874 -1 200 140 1 0 0;
#X restore 272 112 graph;
#N canvas 0 22 450 278 (subpatch) 0;
#X array nother3 21484 float 2;
#X coords 0 1 21484 -1 200 140 1 0 0;
#X restore 271 272 graph;
#N canvas 0 22 450 278 (subpatch) 0;
#X array nother4 32353 float 2;
#X coords 0 1 32353 -1 200 140 1 0 0;
#X restore 65 272 graph;
#X restore -209 611 pd sounds_niku;
#N canvas 683 388 450 300 sounds_etc 0;
#N canvas 0 22 450 278 (subpatch) 0;
#X array goku 6822 float 2;
#X coords 0 1 6822 -1 200 140 1 0 0;
#X restore 100 20 graph;
#N canvas 0 22 450 278 (subpatch) 0;
#X array paku 15322 float 2;
#X coords 0 1 15322 -1 200 140 1 0 0;
#X restore 102 178 graph;
#X restore -209 632 pd sounds_etc;
#N canvas 667 293 450 300 play_gokuri 0;
#X obj 45 83 inlet;
#X obj 45 118 tabplay~ goku;
#X obj 153 159 send bairitsu;
#X msg 153 119 1;
#X obj 45 172 outlet~;
#X obj 105 171 outlet;
#X connect 0 0 1 0;
#X connect 0 0 3 0;
#X connect 1 0 4 0;
#X connect 1 1 5 0;
#X connect 3 0 2 0;
#X restore 24 118 pd play_gokuri;
#X obj 24 162 send~ out_goku;
#N canvas 1097 353 471 395 vibration 1;
#N canvas 636 239 633 457 shindo 1;
#X obj 67 43 inlet;
#X msg 226 157 1;
#X msg 262 157 0;
#X obj 209 45 inlet;
#X obj 270 187 receive volume;
#X obj 178 248 *~;
#X obj 145 208 *~ 1;
#X obj 136 293 outlet~;
#X obj 53 144 osc~ 2000;
#X connect 0 0 6 1;
#X connect 1 0 6 1;
#X connect 2 0 6 1;
#X connect 3 0 2 0;
#X connect 4 0 5 1;
#X connect 5 0 7 0;
#X connect 6 0 5 0;
#X connect 8 0 6 0;
#X restore 78 191 pd shindo;
#X obj 78 80 abs~;
#X obj 78 118 snapshot~;
#X floatatom 78 165 0 0 0 0 - - -;
#X obj 111 80 metro 1;
#X obj 139 118 receive bairitsu;
#X obj 78 142 * 2;
#X obj 78 261 outlet~;
#X obj 81 23 inlet~;
#X obj 147 152 inlet;
#X obj 189 12 inlet;
#X connect 0 0 7 0;
#X connect 1 0 2 0;
#X connect 2 0 6 0;
#X connect 3 0 0 0;
#X connect 4 0 2 0;
#X connect 5 0 6 1;
#X connect 6 0 3 0;
#X connect 8 0 1 0;
#X connect 9 0 0 1;
#X connect 10 0 4 0;
#X restore -462 227 pd vibration;
#X obj -384 201 receive init;
#N canvas 803 456 471 395 vibration 0;
#N canvas 527 197 633 457 shindo 0;
#X obj 67 43 inlet;
#X msg 226 157 1;
#X msg 262 157 0;
#X obj 145 208 *~ 0;
#X obj 209 45 inlet;
#X obj 270 187 receive volume;
#X obj 53 144 osc~ 80;
#X obj 178 248 *~;
#X obj 136 293 outlet~;
#X connect 0 0 3 1;
#X connect 1 0 3 1;
#X connect 2 0 3 1;
#X connect 3 0 7 0;
#X connect 4 0 2 0;
#X connect 5 0 7 1;
#X connect 6 0 3 0;
#X connect 7 0 8 0;
#X restore 78 191 pd shindo;
#X obj 78 80 abs~;
#X obj 78 118 snapshot~;
#X floatatom 78 165 0 0 0 0 - - -;
#X obj 111 80 metro 1;
#X obj 139 118 receive bairitsu;
#X obj 78 142 * 2;
#X obj 78 261 outlet~;
#X obj 81 23 inlet~;
#X obj 147 152 inlet;
#X obj 189 12 inlet;
#X connect 0 0 7 0;
#X connect 1 0 2 0;
#X connect 2 0 6 0;
#X connect 3 0 0 0;
#X connect 4 0 2 0;
#X connect 5 0 6 1;
#X connect 6 0 3 0;
#X connect 8 0 1 0;
#X connect 9 0 0 1;
#X connect 10 0 4 0;
#X restore -290 232 pd vibration;
#X obj -213 208 receive init;
#N canvas 803 456 471 395 vibration 0;
#N canvas 527 197 633 457 shindo 0;
#X obj 67 43 inlet;
#X msg 226 157 1;
#X msg 262 157 0;
#X obj 145 208 *~ 0;
#X obj 209 45 inlet;
#X obj 270 187 receive volume;
#X obj 53 144 osc~ 80;
#X obj 178 248 *~;
#X obj 136 293 outlet~;
#X connect 0 0 3 1;
#X connect 1 0 3 1;
#X connect 2 0 3 1;
#X connect 3 0 7 0;
#X connect 4 0 2 0;
#X connect 5 0 7 1;
#X connect 6 0 3 0;
#X connect 7 0 8 0;
#X restore 78 191 pd shindo;
#X obj 78 80 abs~;
#X obj 78 118 snapshot~;
#X floatatom 78 165 0 0 0 0 - - -;
#X obj 111 80 metro 1;
#X obj 139 118 receive bairitsu;
#X obj 78 142 * 2;
#X obj 78 261 outlet~;
#X obj 81 23 inlet~;
#X obj 147 152 inlet;
#X obj 189 12 inlet;
#X connect 0 0 7 0;
#X connect 1 0 2 0;
#X connect 2 0 6 0;
#X connect 3 0 0 0;
#X connect 4 0 2 0;
#X connect 5 0 6 1;
#X connect 6 0 3 0;
#X connect 8 0 1 0;
#X connect 9 0 0 1;
#X connect 10 0 4 0;
#X restore -112 236 pd vibration;
#X obj -49 204 receive init;
#X obj -460 264 send~ out;
#X obj -291 269 send~ out;
#X obj -105 270 send~ out;
#X obj -78 530 receive init;
#X obj -77 503 send init;
#N canvas 803 456 471 395 vibration 0;
#N canvas 527 197 633 457 shindo 0;
#X obj 67 43 inlet;
#X msg 226 157 1;
#X msg 262 157 0;
#X obj 145 208 *~ 0;
#X obj 209 45 inlet;
#X obj 270 187 receive volume;
#X obj 53 144 osc~ 80;
#X obj 178 248 *~;
#X obj 136 293 outlet~;
#X connect 0 0 3 1;
#X connect 1 0 3 1;
#X connect 2 0 3 1;
#X connect 3 0 7 0;
#X connect 4 0 2 0;
#X connect 5 0 7 1;
#X connect 6 0 3 0;
#X connect 7 0 8 0;
#X restore 78 191 pd shindo;
#X obj 78 80 abs~;
#X obj 78 118 snapshot~;
#X floatatom 78 165 0 0 0 0 - - -;
#X obj 111 80 metro 1;
#X obj 139 118 receive bairitsu;
#X obj 78 142 * 2;
#X obj 78 261 outlet~;
#X obj 81 23 inlet~;
#X obj 147 152 inlet;
#X obj 189 12 inlet;
#X connect 0 0 7 0;
#X connect 1 0 2 0;
#X connect 2 0 6 0;
#X connect 3 0 0 0;
#X connect 4 0 2 0;
#X connect 5 0 6 1;
#X connect 6 0 3 0;
#X connect 8 0 1 0;
#X connect 9 0 0 1;
#X connect 10 0 4 0;
#X restore 52 234 pd vibration;
#X obj 103 205 receive init;
#N canvas 200 425 450 300 play_paku 0;
#X obj 55 93 inlet;
#X obj 163 169 send bairitsu;
#X msg 163 129 1;
#X obj 55 182 outlet~;
#X obj 115 181 outlet;
#X obj 55 128 tabplay~ paku;
#X connect 0 0 2 0;
#X connect 0 0 5 0;
#X connect 2 0 1 0;
#X connect 5 0 3 0;
#X connect 5 1 4 0;
#X restore 171 122 pd play_paku;
#X obj 171 162 send~ out_paku;
#N canvas 803 456 471 395 vibration 0;
#N canvas 527 197 633 457 shindo 0;
#X obj 67 43 inlet;
#X msg 226 157 1;
#X msg 262 157 0;
#X obj 145 208 *~ 0;
#X obj 209 45 inlet;
#X obj 270 187 receive volume;
#X obj 53 144 osc~ 80;
#X obj 178 248 *~;
#X obj 136 293 outlet~;
#X connect 0 0 3 1;
#X connect 1 0 3 1;
#X connect 2 0 3 1;
#X connect 3 0 7 0;
#X connect 4 0 2 0;
#X connect 5 0 7 1;
#X connect 6 0 3 0;
#X connect 7 0 8 0;
#X restore 78 191 pd shindo;
#X obj 78 80 abs~;
#X obj 78 118 snapshot~;
#X floatatom 78 165 0 0 0 0 - - -;
#X obj 111 80 metro 1;
#X obj 139 118 receive bairitsu;
#X obj 78 142 * 2;
#X obj 78 261 outlet~;
#X obj 81 23 inlet~;
#X obj 147 152 inlet;
#X obj 189 12 inlet;
#X connect 0 0 7 0;
#X connect 1 0 2 0;
#X connect 2 0 6 0;
#X connect 3 0 0 0;
#X connect 4 0 2 0;
#X connect 5 0 6 1;
#X connect 6 0 3 0;
#X connect 8 0 1 0;
#X connect 9 0 0 1;
#X connect 10 0 4 0;
#X restore 192 228 pd vibration;
#X obj 247 199 receive init;
#X obj 123 329 metro 500;
#X obj 123 355 random 4;
#X obj 123 383 sel 0 1 2 3;
#X msg 84 497 0;
#X msg 102 517 0;
#X msg 302 536 0;
#X obj 58 637 *~;
#X obj 86 638 *~;
#X obj 115 640 *~;
#X obj 150 638 *~;
#X msg -6 497 1;
#X msg 23 497 0;
#X msg 53 497 0;
#X msg 161 515 0;
#X msg 192 517 0;
#X msg 130 516 1;
#X msg 211 536 0;
#X msg 243 535 0;
#X msg 272 535 1;
#X msg 220 441 0;
#X msg 252 440 0;
#X msg 281 440 0;
#X msg 311 441 1;
#X obj -24 396 receive~ out_pachi;
#N canvas 84 307 547 363 sounds_pachi 0;
#N canvas 0 22 450 278 (subpatch) 0;
#X array pother0 17711 float 2;
#X coords 0 1 17711 -1 200 140 1 0 0;
#X restore 57 36 graph;
#N canvas 0 22 450 278 (subpatch) 0;
#X array pother1 28918 float 2;
#X coords 0 1 28918 -1 200 140 1 0 0;
#X restore 59 195 graph;
#N canvas 0 22 450 278 (subpatch) 0;
#X array pother2 22656 float 2;
#X coords 0 1 22656 -1 200 140 1 0 0;
#X restore 265 37 graph;
#N canvas 0 22 450 278 (subpatch) 0;
#X array ploop 714657 float 2;
#X coords 0 1 714657 -1 200 140 1 0 0;
#X restore 267 195 graph;
#X restore -209 569 pd sounds_pachi;
#X obj 123 305 receive init;
#N canvas 563 323 450 300 play_pachipachi_loop 0;
#X obj 90 88 inlet;
#X obj 234 91 inlet;
#X obj 90 135 bng 15 250 50 0 empty empty empty 17 7 0 10 -262144 -1
-1;
#X obj 90 231 outlet~;
#X obj 90 176 tabplay~ ploop;
#X msg 196 135 stop;
#X obj 219 234 outlet;
#X connect 0 0 2 0;
#X connect 1 0 5 0;
#X connect 2 0 4 0;
#X connect 4 0 3 0;
#X connect 4 1 2 0;
#X connect 5 0 4 0;
#X connect 5 0 6 0;
#X restore 335 125 pd play_pachipachi_loop;
#N canvas 374 248 471 395 vibration 0;
#N canvas 527 197 633 457 shindo 0;
#X obj 67 43 inlet;
#X msg 226 157 1;
#X msg 262 157 0;
#X obj 145 208 *~ 0;
#X obj 209 45 inlet;
#X obj 270 187 receive volume;
#X obj 53 144 osc~ 80;
#X obj 178 248 *~;
#X obj 136 293 outlet~;
#X connect 0 0 3 1;
#X connect 1 0 3 1;
#X connect 2 0 3 1;
#X connect 3 0 7 0;
#X connect 4 0 2 0;
#X connect 5 0 7 1;
#X connect 6 0 3 0;
#X connect 7 0 8 0;
#X restore 78 191 pd shindo;
#X obj 78 80 abs~;
#X obj 78 118 snapshot~;
#X floatatom 78 165 0 0 0 0 - - -;
#X obj 111 80 metro 1;
#X obj 139 118 receive bairitsu;
#X obj 78 142 * 2;
#X obj 78 261 outlet~;
#X obj 78 43 inlet~;
#X obj 147 152 inlet;
#X obj 189 12 inlet;
#X connect 0 0 7 0;
#X connect 1 0 2 0;
#X connect 2 0 6 0;
#X connect 3 0 0 0;
#X connect 4 0 2 0;
#X connect 5 0 6 1;
#X connect 6 0 3 0;
#X connect 8 0 1 0;
#X connect 9 0 0 1;
#X connect 10 0 4 0;
#X restore 353 213 pd vibration;
#X obj 437 185 receive init;
#X obj 69 675 dac~ 1 2 3 4;
#X obj 340 253 send~ out_pachi;
#X obj 405 487 receive~ out_goku;
#X obj 378 519 dac~ 1 2 3 4;
#X obj 51 270 send~ out_goku;
#X obj 448 558 dac~ 1 2 3 4;
#X obj 192 256 send~ out_paku;
#X obj 480 523 receive~ out_paku;
#X obj -275 35 bng 15 250 50 0 empty empty empty 17 7 0 10 -262144
-1 -1;
#X connect 0 0 1 0;
#X connect 1 0 3 0;
#X connect 1 1 4 0;
#X connect 1 2 5 0;
#X connect 1 3 40 0;
#X connect 1 4 55 0;
#X connect 1 5 85 0;
#X connect 1 6 85 1;
#X connect 3 0 2 0;
#X connect 3 0 42 0;
#X connect 3 1 42 1;
#X connect 3 2 2 1;
#X connect 3 3 8 0;
#X connect 4 0 6 0;
#X connect 4 0 44 0;
#X connect 4 1 44 1;
#X connect 4 2 6 1;
#X connect 4 3 9 0;
#X connect 5 0 7 0;
#X connect 5 0 46 0;
#X connect 5 1 46 1;
#X connect 5 2 7 1;
#X connect 5 3 10 0;
#X connect 11 0 12 0;
#X connect 11 0 13 0;
#X connect 11 0 14 0;
#X connect 12 0 16 0;
#X connect 12 0 18 0;
#X connect 12 0 19 0;
#X connect 12 0 17 0;
#X connect 13 0 20 0;
#X connect 13 0 23 0;
#X connect 13 0 21 0;
#X connect 13 0 22 0;
#X connect 14 0 26 0;
#X connect 14 0 25 0;
#X connect 14 0 27 0;
#X connect 14 0 24 0;
#X connect 16 0 28 1;
#X connect 17 0 31 1;
#X connect 18 0 29 1;
#X connect 19 0 30 1;
#X connect 20 0 28 1;
#X connect 21 0 30 1;
#X connect 22 0 31 1;
#X connect 23 0 29 1;
#X connect 24 0 31 1;
#X connect 25 0 29 1;
#X connect 26 0 28 1;
#X connect 27 0 30 1;
#X connect 28 0 15 0;
#X connect 29 0 15 1;
#X connect 30 0 15 2;
#X connect 31 0 15 3;
#X connect 32 0 28 0;
#X connect 32 0 29 0;
#X connect 32 0 30 0;
#X connect 32 0 31 0;
#X connect 34 0 52 0;
#X connect 35 0 36 0;
#X connect 40 0 41 0;
#X connect 40 0 53 0;
#X connect 40 1 53 1;
#X connect 42 0 48 0;
#X connect 43 0 42 2;
#X connect 44 0 49 0;
#X connect 45 0 44 2;
#X connect 46 0 50 0;
#X connect 47 0 46 2;
#X connect 51 0 33 0;
#X connect 53 0 92 0;
#X connect 54 0 53 2;
#X connect 55 0 56 0;
#X connect 55 0 57 0;
#X connect 55 1 57 1;
#X connect 57 0 94 0;
#X connect 58 0 57 2;
#X connect 59 0 60 0;
#X connect 60 0 61 0;
#X connect 61 0 69 0;
#X connect 61 0 70 0;
#X connect 61 0 71 0;
#X connect 61 0 62 0;
#X connect 61 1 63 0;
#X connect 61 1 74 0;
#X connect 61 1 72 0;
#X connect 61 1 73 0;
#X connect 61 2 75 0;
#X connect 61 2 76 0;
#X connect 61 2 77 0;
#X connect 61 2 64 0;
#X connect 61 3 78 0;
#X connect 61 3 79 0;
#X connect 61 3 80 0;
#X connect 61 3 81 0;
#X connect 62 0 68 1;
#X connect 63 0 65 1;
#X connect 64 0 68 1;
#X connect 65 0 88 0;
#X connect 66 0 88 1;
#X connect 67 0 88 2;
#X connect 68 0 88 3;
#X connect 69 0 65 1;
#X connect 70 0 66 1;
#X connect 71 0 67 1;
#X connect 72 0 67 1;
#X connect 73 0 68 1;
#X connect 74 0 66 1;
#X connect 75 0 65 1;
#X connect 76 0 66 1;
#X connect 77 0 67 1;
#X connect 78 0 65 1;
#X connect 79 0 66 1;
#X connect 80 0 67 1;
#X connect 81 0 68 1;
#X connect 82 0 65 0;
#X connect 82 0 66 0;
#X connect 82 0 67 0;
#X connect 82 0 68 0;
#X connect 84 0 59 0;
#X connect 85 0 86 0;
#X connect 85 0 89 0;
#X connect 85 1 86 1;
#X connect 86 0 89 0;
#X connect 87 0 86 2;
#X connect 90 0 91 0;
#X connect 90 0 91 3;
#X connect 95 0 93 1;
#X connect 95 0 93 2;
#X connect 96 0 3 0;
