#N canvas -22 23 770 630 10;
#X obj 61 118 dumpOSC 9000;
#X obj 168 78 print;
#N canvas 0 22 450 278 (subpatch) 0;
#X array sosyaku 8441 float 2;
#X coords 0 1 8441 -1 200 140 1 0 0;
#X restore 214 102 graph;
#X msg 168 40 hello;
#X obj 494 325 soundfiler;
#X obj 60 148 bng 15 250 50 0 empty empty empty 17 7 0 10 -262144 -1
-1;
#X obj 139 458 dac~;
#X obj 334 245 tgl 15 0 empty empty empty 17 7 0 10 -262144 -1 -1 0
1;
#X msg 335 273 \; pd dsp \$1;
#X obj 60 304 tabplay~ sosyaku;
#X obj 65 186 random 2;
#X obj 65 218 sel 0;
#N canvas 0 22 450 278 (subpatch) 0;
#X array sosyaku2 11790 float 2;
#X coords 0 1 11790 -1 200 140 1 0 0;
#X restore 455 99 graph;
#X msg 494 289 read -resize data/sosyaku.wav sosyaku;
#X obj 246 362 soundfiler;
#X obj 172 305 tabplay~ sosyaku2;
#X text 104 479 dacの左右は出力のLRです;
#X obj 312 559 dac~;
#X obj 472 381 hsl 128 15 0 200 0 0 empty empty empty -2 -8 0 10 -262144
-1 -1 600 1;
#X msg 417 436 1;
#X msg 453 436 0;
#X obj 335 514 *~ 0;
#X obj 265 412 osc~ 70;
#X obj 496 439 test;
#N canvas 182 284 450 300 doraemon 0;
#X restore 204 615 pd doraemon;
#X msg 238 330 read -resize data/motion.wav sosyaku2;
#X connect 0 0 5 0;
#X connect 3 0 1 0;
#X connect 5 0 10 0;
#X connect 5 0 19 0;
#X connect 7 0 8 0;
#X connect 9 0 6 1;
#X connect 9 0 6 0;
#X connect 9 1 20 0;
#X connect 10 0 11 0;
#X connect 11 0 9 0;
#X connect 11 1 15 0;
#X connect 13 0 4 0;
#X connect 15 0 6 1;
#X connect 15 0 6 0;
#X connect 15 1 20 0;
#X connect 19 0 21 1;
#X connect 20 0 21 1;
#X connect 21 0 17 0;
#X connect 21 0 17 1;
#X connect 22 0 21 0;
#X connect 25 0 14 0;
#X coords 0 630 1 629 85 60 0;
