#N canvas 182 113 1125 680 10;
#N canvas 511 191 770 609 init 0;
#X obj 97 36 inlet;
#X obj 42 474 soundfiler;
#X msg 165 367 read -resize data/niku/niku_5.wav nother4;
#X msg 161 390 read -resize data/goku.wav goku;
#X msg 164 425 read -resize data/paku.wav paku;
#X msg 162 106 read -resize data/senbei/senbei_1.wav sother0;
#X msg 172 149 read -resize data/senbei/senbei_2.wav sother1;
#X msg 172 176 read -resize data/senbei/senbei_3.wav sother2;
#X msg 165 263 read -resize data/niku_ver2/niku_1_ver2.wav nother0
;
#X msg 165 290 read -resize data/niku_ver2/niku_2_ver2.wav nother1
;
#X msg 164 315 read -resize data/niku_ver2/niku_3_ver2.wav nother2
;
#X msg 165 339 read -resize data/niku_ver2/niku_4_ver2.wav nother3
;
#X msg 163 465 read -resize data/niku/niku_1.wav nother0;
#X msg 163 492 read -resize data/niku/niku_2.wav nother1;
#X msg 162 517 read -resize data/niku/niku_3.wav nother2;
#X msg 163 541 read -resize data/niku/niku_4.wav nother3;
#X msg 461 62 read -resize data/senbei_ver2/senbei_1_ver2.wav sother0
;
#X msg 461 92 read -resize data/senbei_ver2/senbei_2_ver2.wav sother1
;
#X msg 461 119 read -resize data/senbei_ver2/senbei_3_ver2.wav sother2
;
#X msg 462 143 read -resize data/senbei_ver2/senbei_4_ver2.wav sother3
;
#X connect 0 0 16 0;
#X connect 2 0 1 0;
#X connect 2 0 3 0;
#X connect 3 0 1 0;
#X connect 3 0 4 0;
#X connect 4 0 1 0;
#X connect 4 0 12 0;
#X connect 5 0 1 0;
#X connect 5 0 6 0;
#X connect 6 0 7 0;
#X connect 6 0 1 0;
#X connect 7 0 1 0;
#X connect 7 0 8 0;
#X connect 8 0 9 0;
#X connect 8 0 1 0;
#X connect 9 0 10 0;
#X connect 9 0 1 0;
#X connect 10 0 11 0;
#X connect 10 0 1 0;
#X connect 11 0 2 0;
#X connect 11 0 1 0;
#X connect 12 0 13 0;
#X connect 12 0 1 0;
#X connect 13 0 14 0;
#X connect 13 0 1 0;
#X connect 14 0 15 0;
#X connect 14 0 1 0;
#X connect 15 0 1 0;
#X connect 16 0 17 0;
#X connect 16 0 1 0;
#X connect 17 0 18 0;
#X connect 17 0 1 0;
#X connect 18 0 1 0;
#X connect 18 0 19 0;
#X connect 19 0 8 0;
#X connect 19 0 1 0;
#X restore 509 268 pd init;
#X obj 509 73 bng 15 250 50 0 empty empty empty 17 7 0 10 -262144 -1
-1;
#N canvas 242 403 633 457 shindo 1;
#X obj 67 43 inlet;
#X msg 226 157 1;
#X msg 262 157 0;
#X obj 145 208 *~ 0;
#X obj 209 45 inlet;
#X obj 270 187 receive volume;
#X obj 179 289 send~ out2;
#X obj 53 144 osc~ 80;
#X obj 178 248 *~;
#X connect 0 0 3 1;
#X connect 1 0 3 1;
#X connect 2 0 3 1;
#X connect 3 0 8 0;
#X connect 4 0 2 0;
#X connect 5 0 8 1;
#X connect 7 0 3 0;
#X connect 8 0 6 0;
#X restore 578 354 pd shindo;
#X obj 509 292 tgl 15 0 empty empty empty 17 7 0 10 -262144 -1 -1 1
1;
#X msg 509 317 \; pd dsp \$1;
#X obj 578 243 abs~;
#X obj 578 281 snapshot~;
#X floatatom 578 328 0 0 0 0 - - -;
#X obj 611 243 metro 1;
#X obj 578 84 receive~ shindo1;
#X obj 78 279 send~ shindo1;
#X obj 156 274 send shindo2;
#X obj 629 313 receive shindo2;
#X obj 639 281 receive bairitsu;
#N canvas 308 206 565 448 sounds_senbei 0;
#N canvas 0 22 450 278 (subpatch) 0;
#X array sother0 14450 float 2;
#X coords 0 1 14450 -1 200 140 1 0 0;
#X restore 47 26 graph;
#N canvas 0 22 450 278 (subpatch) 0;
#X array sother1 24669 float 2;
#X coords 0 1 24669 -1 200 140 1 0 0;
#X restore 49 185 graph;
#N canvas 0 22 450 278 (subpatch) 0;
#X array sother2 13963 float 2;
#X coords 0 1 13963 -1 200 140 1 0 0;
#X restore 255 27 graph;
#N canvas 0 22 450 278 (subpatch) 0;
#X array sother3 21333 float 2;
#X coords 0 1 21333 -1 200 140 1;
#X restore 257 185 graph;
#X restore -21 423 pd sounds_senbei;
#N canvas 893 300 506 495 sounds_niku 0;
#N canvas 0 22 450 278 (subpatch) 0;
#X array nother0 29372 float 2;
#X coords 0 1 29372 -1 200 140 1 0 0;
#X restore 64 -48 graph;
#N canvas 0 22 450 278 (subpatch) 0;
#X array nother1 43181 float 2;
#X coords 0 1 43181 -1 200 140 1 0 0;
#X restore 64 112 graph;
#N canvas 0 22 450 278 (subpatch) 0;
#X array nother2 36874 float 2;
#X coords 0 1 36874 -1 200 140 1 0 0;
#X restore 272 112 graph;
#N canvas 0 22 450 278 (subpatch) 0;
#X array nother3 21484 float 2;
#X coords 0 1 21484 -1 200 140 1 0 0;
#X restore 271 272 graph;
#N canvas 0 22 450 278 (subpatch) 0;
#X array nother4 32353 float 2;
#X coords 0 1 32353 -1 200 140 1 0 0;
#X restore 65 272 graph;
#X restore -21 445 pd sounds_niku;
#X obj 833 332 dac~;
#N canvas 209 315 450 300 play_sounds_random_senbei 0;
#X obj 121 37 inlet;
#X restore -49 390 pd play_sounds_random_senbei;
#X obj 578 305 * 2;
#N canvas 790 300 591 431 play_sounds_random_niku 0;
#X obj 83 37 inlet;
#X obj 83 83 random 5;
#X obj 42 141 sel 0;
#X obj 185 146 sel 2;
#X obj 112 139 sel 1;
#X obj 260 145 sel 3;
#X obj 337 141 sel 4;
#X obj 42 187 tabplay~ nother0;
#X obj 112 236 tabplay~ nother1;
#X obj 185 210 tabplay~ nother2;
#X obj 260 187 tabplay~ nother3;
#X obj 337 251 tabplay~ nother4;
#X obj 170 334 outlet~;
#X obj 279 352 outlet;
#X obj 15 299 send bairitsu;
#X msg 15 267 1;
#X connect 0 0 1 0;
#X connect 1 0 2 0;
#X connect 1 0 4 0;
#X connect 1 0 3 0;
#X connect 1 0 5 0;
#X connect 1 0 6 0;
#X connect 2 0 7 0;
#X connect 2 0 15 0;
#X connect 3 0 9 0;
#X connect 3 0 15 0;
#X connect 4 0 8 0;
#X connect 4 0 15 0;
#X connect 5 0 10 0;
#X connect 5 0 15 0;
#X connect 6 0 11 0;
#X connect 6 0 15 0;
#X connect 7 0 12 0;
#X connect 7 1 13 0;
#X connect 8 0 12 0;
#X connect 8 1 13 0;
#X connect 9 0 12 0;
#X connect 9 1 13 0;
#X connect 10 0 12 0;
#X connect 10 1 13 0;
#X connect 11 0 12 0;
#X connect 11 1 13 0;
#X connect 15 0 14 0;
#X restore 73 206 pd play_sounds_random_niku;
#X obj 631 155 *~;
#X obj -61 171 send volume;
#X obj 664 122 receive volume;
#X floatatom 24 145 5 0 0 0 - - -;
#X obj 23 180 send volume;
#X floatatom -55 148 5 0 0 0 - - -;
#X obj 67 95 bng 15 250 50 0 empty empty empty 17 7 0 10 -262144 -1
-1;
#X obj 311 200 tabplay~ goku;
#X obj 137 160 send bairitsu;
#X obj 743 34 bng 15 250 50 0 empty empty empty 17 7 0 10 -262144 -1
-1;
#X obj 831 167 sel 1;
#X obj 870 167 sel 2;
#X obj 813 274 *~;
#X obj 844 274 *~;
#X msg 769 201 1;
#X msg 800 201 0;
#X msg 834 226 1;
#X msg 865 226 1;
#X msg 884 201 0;
#X msg 915 201 1;
#X obj 630 183 send~ out;
#X obj 685 222 receive~ out;
#X obj 741 331 receive~ out2;
#X obj 766 424 dac~;
#X obj 746 366 *~;
#X obj 777 366 *~;
#X obj 9 303 send~ barabaraout;
#X obj 611 103 receive~ barabaraout;
#X obj 323 579 dac~;
#X msg 136 139 1.5;
#N canvas 683 388 450 300 sounds_etc 0;
#N canvas 0 22 450 278 (subpatch) 0;
#X array goku 6822 float 2;
#X coords 0 1 6822 -1 200 140 1 0 0;
#X restore 100 20 graph;
#N canvas 0 22 450 278 (subpatch) 0;
#X array paku 15322 float 2;
#X coords 0 1 15322 -1 200 140 1 0 0;
#X restore 102 178 graph;
#X restore -21 466 pd sounds_etc;
#X obj 483 451 tabplay~ paku;
#X obj 442 498 send bairitsu;
#X obj 439 308 bng 15 250 50 0 empty empty empty 17 7 0 10 -262144
-1 -1;
#X msg 442 476 1;
#N canvas 514 302 591 431 play_sounds_random_senbei 1;
#X obj 83 37 inlet;
#X obj 86 130 sel 0;
#X obj 250 130 sel 2;
#X obj 166 131 sel 1;
#X obj 170 334 outlet~;
#X obj 279 352 outlet;
#X obj 15 299 send bairitsu;
#X obj 83 83 random 3;
#X obj 101 186 tabplay~ sother0;
#X obj 169 237 tabplay~ sother1;
#X msg 16 266 1;
#X obj 351 137 sel 3;
#X obj 213 187 tabplay~ sother2;
#X obj 338 192 tabplay~ sother3;
#X connect 0 0 7 0;
#X connect 1 0 10 0;
#X connect 1 0 8 0;
#X connect 2 0 10 0;
#X connect 2 0 12 0;
#X connect 3 0 10 0;
#X connect 3 0 9 0;
#X connect 7 0 1 0;
#X connect 7 0 3 0;
#X connect 7 0 2 0;
#X connect 7 0 11 0;
#X connect 8 0 4 0;
#X connect 8 1 5 0;
#X connect 9 0 4 0;
#X connect 9 1 5 0;
#X connect 10 0 6 0;
#X connect 11 0 13 0;
#X connect 11 0 10 0;
#X connect 12 0 4 0;
#X connect 12 1 5 0;
#X connect 13 0 4 0;
#X connect 13 1 5 0;
#X restore -156 101 pd play_sounds_random_senbei;
#X obj -1 19 dumpOSC 9700;
#X obj -30 68 bng 15 250 50 0 empty empty empty 17 7 0 10 -262144 -1
-1;
#X obj 13 54 OSCroute /sother /nother /gokuri /paku /sakana;
#X obj 393 537 *~;
#X msg 440 525 0.5;
#X obj 798 96 receive pos;
#X obj 209 454 send pos;
#X obj 1 86 unpack f i;
#X obj 792 167 sel 3;
#X obj 320 128 bng 15 250 50 0 empty empty empty 17 7 0 10 -262144
-1 -1;
#X connect 1 0 0 0;
#X connect 1 0 8 0;
#X connect 3 0 4 0;
#X connect 5 0 6 0;
#X connect 6 0 18 0;
#X connect 7 0 2 0;
#X connect 8 0 6 0;
#X connect 9 0 5 0;
#X connect 12 0 2 1;
#X connect 13 0 18 1;
#X connect 18 0 7 0;
#X connect 19 0 10 0;
#X connect 19 0 46 0;
#X connect 19 1 11 0;
#X connect 20 0 40 0;
#X connect 22 0 20 1;
#X connect 23 0 24 0;
#X connect 25 0 21 0;
#X connect 26 0 19 0;
#X connect 26 0 23 0;
#X connect 27 0 10 0;
#X connect 27 0 48 0;
#X connect 27 0 48 1;
#X connect 27 1 11 0;
#X connect 30 0 36 0;
#X connect 30 0 37 0;
#X connect 31 0 38 0;
#X connect 31 0 39 0;
#X connect 32 0 16 0;
#X connect 33 0 16 1;
#X connect 34 0 32 1;
#X connect 34 0 44 1;
#X connect 35 0 33 1;
#X connect 35 0 45 1;
#X connect 36 0 32 1;
#X connect 36 0 44 1;
#X connect 37 0 33 1;
#X connect 37 0 45 1;
#X connect 38 0 32 1;
#X connect 38 0 44 1;
#X connect 39 0 33 1;
#X connect 39 0 45 1;
#X connect 41 0 32 0;
#X connect 41 0 33 0;
#X connect 42 0 44 0;
#X connect 42 0 45 0;
#X connect 44 0 43 0;
#X connect 45 0 43 1;
#X connect 47 0 20 0;
#X connect 49 0 28 0;
#X connect 51 0 10 0;
#X connect 51 0 59 0;
#X connect 51 1 11 0;
#X connect 53 0 51 0;
#X connect 53 0 54 0;
#X connect 53 0 60 0;
#X connect 54 0 52 0;
#X connect 55 0 46 0;
#X connect 55 0 10 0;
#X connect 55 1 11 0;
#X connect 56 0 29 0;
#X connect 56 0 58 0;
#X connect 57 0 55 0;
#X connect 58 0 57 0;
#X connect 58 0 63 0;
#X connect 58 1 26 0;
#X connect 58 1 63 0;
#X connect 58 2 27 0;
#X connect 58 2 49 0;
#X connect 58 3 51 0;
#X connect 58 3 54 0;
#X connect 59 0 48 0;
#X connect 59 0 48 1;
#X connect 60 0 59 1;
#X connect 61 0 30 0;
#X connect 61 0 31 0;
#X connect 61 0 64 0;
#X connect 63 0 25 0;
#X connect 63 0 23 0;
#X connect 63 1 62 0;
#X connect 64 0 34 0;
#X connect 64 0 35 0;
#X connect 65 0 27 0;
