#N canvas 629 130 773 487 10;
#X obj 13 54 OSCroute /sfirst /sother /rfirst /rother /nfirst /nother
;
#N canvas 426 441 450 300 init 1;
#X obj 97 36 inlet;
#X msg 97 71 read -resize data/senbei/senbei_1.wav sfirst;
#X obj 80 262 soundfiler;
#X msg 162 106 read -resize data/senbei/senbei_2.wav sother;
#X msg 164 154 read -resize data/apple/apple_1.wav rother0;
#X msg 164 181 read -resize data/apple/apple_2.wav rother1;
#X msg 163 206 read -resize data/apple/apple_3.wav rother2;
#X msg 164 230 read -resize data/apple/apple_4.wav rother3;
#X connect 0 0 1 0;
#X connect 1 0 2 0;
#X connect 1 0 3 0;
#X connect 3 0 2 0;
#X connect 3 0 4 0;
#X connect 4 0 5 0;
#X connect 4 0 2 0;
#X connect 5 0 6 0;
#X connect 5 0 2 0;
#X connect 6 0 2 0;
#X connect 6 0 7 0;
#X connect 7 0 2 0;
#X restore 353 212 pd init;
#X obj 353 174 bng 15 250 50 0 empty empty empty 17 7 0 10 -262144
-1 -1;
#X obj 13 102 tabplay~ sfirst;
#N canvas 216 88 450 300 shindo 0;
#X obj 67 43 inlet;
#X obj 121 280 dac~;
#X msg 226 157 1;
#X msg 262 157 0;
#X obj 144 235 *~ 0;
#X obj 209 45 inlet;
#X obj 307 89 hsl 128 15 0 5 0 0 empty empty empty -2 -8 0 10 -262144
-1 -1 0 1;
#X obj 53 144 osc~ 100;
#X connect 0 0 4 1;
#X connect 2 0 4 1;
#X connect 3 0 4 1;
#X connect 4 0 1 0;
#X connect 4 0 1 1;
#X connect 5 0 3 0;
#X connect 7 0 4 0;
#X restore 431 298 pd shindo;
#X obj 353 236 tgl 15 0 empty empty empty 17 7 0 10 -262144 -1 -1 1
1;
#X msg 353 261 \; pd dsp \$1;
#X obj 67 143 tabplay~ sother;
#X obj 13 19 dumpOSC 9800;
#X obj 431 187 abs~;
#X obj 431 225 snapshot~;
#X floatatom 431 272 0 0 0 0 - - -;
#X obj 464 187 metro 1;
#X obj 431 106 receive~ shindo1;
#X obj 48 245 send~ shindo1;
#X obj 154 244 send shindo2;
#X obj 482 257 receive shindo2;
#X obj 492 225 receive bairitsu;
#X obj -86 124 send bairitsu;
#X msg -49 88 10;
#X obj -69 250 send bairitsu;
#N canvas 474 562 565 448 sounds_senbei 1;
#N canvas 0 22 450 278 (subpatch) 0;
#X array sfirst 98541 float 2;
#X coords 0 1 98541 -1 200 140 1;
#X restore 84 -8 graph;
#N canvas 0 22 450 278 (subpatch) 0;
#X array sother 15559 float 2;
#X coords 0 1 15559 -1 200 140 1 0 0;
#X restore 84 152 graph;
#X restore 220 296 pd sounds_senbei;
#N canvas 96 86 522 481 sounds_ringo 0;
#N canvas 0 22 450 278 (subpatch) 0;
#X array rother0 12413 float 2;
#X coords 0 1 12413 -1 200 140 1 0 0;
#X restore 54 -58 graph;
#N canvas 0 22 450 278 (subpatch) 0;
#X array rother1 13715 float 2;
#X coords 0 1 13715 -1 200 140 1 0 0;
#X restore 54 102 graph;
#N canvas 0 22 450 278 (subpatch) 0;
#X array rother2 9879 float 2;
#X coords 0 1 9879 -1 200 140 1 0 0;
#X restore 262 102 graph;
#N canvas 0 22 450 278 (subpatch) 0;
#X array rother3 7336 float 2;
#X coords 0 1 7336 -1 200 140 1 0 0;
#X restore 261 262 graph;
#X restore 221 322 pd sounds_ringo;
#N canvas 341 295 506 495 sounds_niku 0;
#N canvas 0 22 450 278 (subpatch) 0;
#X array nother0 12413 float 2;
#X coords 0 1 12413 -1 200 140 1 0 0;
#X restore 64 -48 graph;
#N canvas 0 22 450 278 (subpatch) 0;
#X array nother1 13715 float 2;
#X coords 0 1 13715 -1 200 140 1 0 0;
#X restore 64 112 graph;
#N canvas 0 22 450 278 (subpatch) 0;
#X array nother2 9879 float 2;
#X coords 0 1 9879 -1 200 140 1 0 0;
#X restore 272 112 graph;
#N canvas 0 22 450 278 (subpatch) 0;
#X array nother3 7336 float 2;
#X coords 0 1 7336 -1 200 140 1 0 0;
#X restore 271 272 graph;
#X restore 221 346 pd sounds_niku;
#X obj 472 150 dac~;
#N canvas 209 315 450 300 play_sounds_random_senbei 1;
#X obj 121 37 inlet;
#X restore -12 339 pd play_sounds_random_senbei;
#N canvas 410 236 560 485 play_sounds_random_ringo 1;
#X obj 121 37 inlet;
#X obj 98 111 random 4;
#X obj 83 187 sel 0;
#X obj 132 187 sel 1;
#X obj 179 187 sel 2;
#X obj 226 187 sel 3;
#X obj 23 240 tabplay~ rother0;
#X obj 111 214 tabplay~ rother1;
#X obj 169 246 tabplay~ rother2;
#X obj 243 217 tabplay~ rother3;
#X obj 148 363 outlet~;
#X obj 248 362 outlet;
#X obj -9 386 send bairitsu;
#X msg 28 350 1;
#X connect 0 0 1 0;
#X connect 1 0 2 0;
#X connect 1 0 3 0;
#X connect 1 0 4 0;
#X connect 1 0 5 0;
#X connect 2 0 6 0;
#X connect 2 0 13 0;
#X connect 3 0 7 0;
#X connect 3 0 13 0;
#X connect 4 0 8 0;
#X connect 4 0 13 0;
#X connect 5 0 9 0;
#X connect 5 0 13 0;
#X connect 6 0 10 0;
#X connect 6 1 11 0;
#X connect 7 0 10 0;
#X connect 7 1 11 0;
#X connect 8 0 10 0;
#X connect 8 1 11 0;
#X connect 9 0 10 0;
#X connect 9 1 11 0;
#X connect 13 0 12 0;
#X restore 235 123 pd play_sounds_random_ringo;
#X obj 209 20 bng 15 250 50 0 empty empty empty 17 7 0 10 -262144 -1
-1;
#X obj 430 249 * 2;
#X msg -32 214 20;
#X floatatom 139 104 5 0 0 0 - - -;
#X connect 0 0 3 0;
#X connect 0 0 19 0;
#X connect 0 1 7 0;
#X connect 0 1 29 0;
#X connect 0 1 30 0;
#X connect 0 3 26 0;
#X connect 2 0 1 0;
#X connect 2 0 12 0;
#X connect 3 0 14 0;
#X connect 3 1 15 0;
#X connect 5 0 6 0;
#X connect 7 0 14 0;
#X connect 7 1 15 0;
#X connect 8 0 0 0;
#X connect 9 0 10 0;
#X connect 10 0 28 0;
#X connect 11 0 4 0;
#X connect 12 0 10 0;
#X connect 13 0 9 0;
#X connect 13 0 24 0;
#X connect 13 0 24 1;
#X connect 16 0 4 1;
#X connect 17 0 28 1;
#X connect 19 0 18 0;
#X connect 26 0 14 0;
#X connect 26 1 15 0;
#X connect 27 0 26 0;
#X connect 28 0 11 0;
#X connect 29 0 20 0;
