#N canvas 900 268 450 300 10;
#X obj 61 90 dumpOSC 9000;
#X obj 168 50 print;
#N canvas 0 22 450 278 (subpatch) 0;
#X array sosyaku 24192 float 2;
#X coords 0 1 24192 -1 200 140 1 0 0;
#X restore 214 74 graph;
#X msg 168 12 hello;
#X obj 13 267 soundfiler;
#X msg 27 225 read -resize data/sosyaku.wav sosyaku;
#X obj 32 118 bng 15 250 50 0 empty empty empty 17 7 0 10 -262144 -1
-1;
#X obj 30 200 dac~;
#X obj 334 217 tgl 15 0 empty empty empty 17 7 0 10 -262144 -1 -1 1
1;
#X msg 335 245 \; pd dsp \$1;
#X obj 63 149 tabplay~ sosyaku;
#X connect 0 0 6 0;
#X connect 3 0 1 0;
#X connect 5 0 4 0;
#X connect 6 0 10 0;
#X connect 8 0 9 0;
#X connect 10 0 7 0;
#X connect 10 0 7 1;
