#N canvas 26 74 675 451 10;
#X obj 13 19 dumpOSC 9900;
#X obj 13 54 OSCroute /sfirst /sother /rfirst /rother /nfirst /nother
;
#N canvas 0 22 450 278 (subpatch) 0;
#X array sfirst 98541 float 2;
#X coords 0 1 98541 -1 200 140 1;
#X restore 389 27 graph;
#N canvas 435 223 450 300 init 0;
#X obj 97 36 inlet;
#X msg 97 71 read -resize data/senbei/senbei_1.wav sfirst;
#X obj 97 133 soundfiler;
#X msg 97 98 read -resize data/senbei/senbei_2.wav sother;
#X connect 0 0 1 0;
#X connect 1 0 3 0;
#X connect 3 0 2 0;
#X restore 265 318 pd init;
#N canvas 0 22 450 278 (subpatch) 0;
#X array sother 15559 float 2;
#X coords 0 1 15559 -1 200 140 1 0 0;
#X restore 389 187 graph;
#X obj 265 280 bng 15 250 50 0 empty empty empty 17 7 0 10 -262144
-1 -1;
#X obj 13 103 tabplay~ sfirst;
#X obj 10 182 dac~;
#N canvas 799 131 450 300 shindo 1;
#X obj 67 43 inlet;
#X obj 121 280 dac~;
#X msg 226 157 1;
#X msg 262 157 0;
#X obj 144 235 *~ 0;
#X obj 209 45 inlet;
#X obj 74 133 osc~ 20;
#X connect 0 0 2 0;
#X connect 2 0 4 1;
#X connect 3 0 4 1;
#X connect 4 0 1 0;
#X connect 4 0 1 1;
#X connect 5 0 3 0;
#X connect 6 0 4 0;
#X restore 150 365 pd shindo;
#X obj 349 365 tgl 15 0 empty empty empty 17 7 0 10 -262144 -1 -1 1
1;
#X msg 350 393 \; pd dsp \$1;
#X obj 64 222 dac~;
#X obj 67 143 tabplay~ sother;
#X connect 0 0 1 0;
#X connect 1 0 6 0;
#X connect 1 0 8 0;
#X connect 1 1 12 0;
#X connect 1 1 8 0;
#X connect 5 0 3 0;
#X connect 6 0 7 0;
#X connect 6 0 7 1;
#X connect 6 1 8 1;
#X connect 9 0 10 0;
#X connect 12 0 11 0;
#X connect 12 0 11 1;
#X connect 12 1 8 1;
