#N canvas 9 320 450 300 10;
#X obj 38 196 tgl 15 0 empty empty empty 17 7 0 10 -262144 -1 -1 1
1;
#X msg 38 221 \; pd dsp \$1;
#X obj 177 40 bng 15 250 50 0 empty empty empty 17 7 0 10 -262144 -1
-1;
#X obj 68 76 osc~ 400;
#X obj 266 65 sig~;
#X obj 374 164 osc~ 60;
#X obj 297 122 *~;
#X floatatom 131 16 5 0 0 0 - - -;
#X floatatom 141 26 5 0 0 0 - - -;
#X obj 195 210 dac~ 1 2 3 4 5;
#X obj 318 214 dac~;
#X connect 0 0 1 0;
#X connect 4 0 5 0;
#X connect 5 0 6 0;
#X connect 6 0 9 2;
#X connect 6 0 9 3;
#X connect 6 0 9 4;
#X connect 6 0 9 0;
#X connect 6 0 9 1;
#X connect 7 0 4 0;
#X connect 8 0 6 1;
